<svg width="20" height="21" viewBox="0 0 20 21" fill="none" xmlns="http://www.w3.org/2000/svg">
<path fill-rule="evenodd" clip-rule="evenodd" d="M4.68314 2.74177C4.49997 2.98782 4.106 3.82563 3.91631 4.25147L17.0904 9.77773C17.2616 9.34327 17.586 8.46852 17.6308 8.17306C17.9255 6.49717 17.1464 5.00881 15.5372 4.16074L9.01271 1.42385C7.26868 0.856721 5.67808 1.34326 4.68314 2.74177ZM14.7366 15.3975L17.0935 9.77907L3.91405 4.25058L1.57573 9.82493C0.605385 12.1385 1.46158 14.1941 3.75446 15.156L9.41796 17.5317C11.7326 18.5026 13.7725 17.6958 14.7366 15.3975Z" fill="url(#paint0_linear_2090_2542)"/>
<g opacity="0.5" filter="url(#filter0_f_2090_2542)">
<path d="M12.6285 5.37307L8.97453 3.89821C7.64913 3.36324 6.53709 3.89497 5.95391 5.33981L3.97875 10.2333C3.38601 11.7018 3.82501 12.8376 5.1504 13.3725L8.80439 14.8474C10.1511 15.391 11.2337 14.8694 11.8265 13.4009L13.8016 8.50739C14.3848 7.06255 13.9753 5.91666 12.6285 5.37307Z" fill="url(#paint1_linear_2090_2542)"/>
</g>
<foreignObject x="0.536437" y="0.47003" width="24.014" height="24.4193"><div xmlns="http://www.w3.org/1999/xhtml" style="backdrop-filter:blur(2.33px);clip-path:url(#bgblur_0_2090_2542_clip_path);height:100%;width:100%"></div></foreignObject><g data-figma-bg-blur-radius="4.66669">
<mask id="path-3-outside-1_2090_2542" maskUnits="userSpaceOnUse" x="4.39746" y="4.33105" width="16" height="16" fill="black">
<rect fill="white" x="4.39746" y="4.33105" width="16" height="16"/>
<path fill-rule="evenodd" clip-rule="evenodd" d="M5.52327 8.22116C5.44954 8.5189 5.41032 9.4439 5.40012 9.90997H19.6864C19.6762 9.4431 19.6369 8.51096 19.564 8.22116C19.1875 6.56173 17.8932 5.49065 16.0813 5.33105H9.006C7.17835 5.48271 5.89979 6.54665 5.52327 8.22116ZM19.6895 16.0028V9.91002H5.39746V15.9549C5.39759 18.4638 6.98231 20.0282 9.46875 20.0282H15.6104C18.1204 20.0282 19.6895 18.4951 19.6895 16.0028ZM15.1084 16.2489C15.1006 15.8837 15.3911 15.582 15.752 15.5741H15.7598C16.1284 15.5742 16.4268 15.8766 16.4268 16.2489C16.4265 16.6218 16.1282 16.9236 15.7598 16.9237C15.3991 16.9158 15.1086 16.6139 15.1084 16.2489ZM8.65332 16.2489C8.65332 15.8837 8.93515 15.5821 9.2959 15.5653C9.64888 15.5653 9.93942 15.8447 9.94727 16.202C9.96276 16.5671 9.68002 16.8686 9.32715 16.8837C8.96659 16.9002 8.6692 16.6138 8.65332 16.2489ZM11.8848 16.2489C11.8848 15.8837 12.1666 15.5821 12.5273 15.5653C12.8803 15.5653 13.1709 15.8447 13.1787 16.202C13.1942 16.5671 12.9115 16.8686 12.5586 16.8837C12.1981 16.9001 11.9006 16.6138 11.8848 16.2489ZM8.66016 13.3671C8.66019 13.0019 8.94291 12.7001 9.30371 12.6835C9.6565 12.6835 9.947 12.962 9.95508 13.3182C9.97077 13.6843 9.68794 13.9867 9.33496 14.0018C8.97416 14.0185 8.67584 13.7315 8.66016 13.3671ZM11.8848 13.3671C11.8848 13.0019 12.1667 12.7003 12.5273 12.6835C12.8802 12.6835 13.1706 12.9619 13.1787 13.3182C13.1944 13.6843 12.9116 13.9867 12.5586 14.0018C12.198 14.0183 11.9004 13.7314 11.8848 13.3671ZM15.1162 13.3592C15.1162 12.994 15.3989 12.7002 15.7598 12.6922C16.1125 12.6923 16.3943 12.9771 16.4102 13.327C16.418 13.6922 16.1361 13.9946 15.7832 14.0018C15.4224 14.0098 15.1241 13.7315 15.1162 13.3671V13.3592Z"/>
</mask>
<path fill-rule="evenodd" clip-rule="evenodd" d="M5.52327 8.22116C5.44954 8.5189 5.41032 9.4439 5.40012 9.90997H19.6864C19.6762 9.4431 19.6369 8.51096 19.564 8.22116C19.1875 6.56173 17.8932 5.49065 16.0813 5.33105H9.006C7.17835 5.48271 5.89979 6.54665 5.52327 8.22116ZM19.6895 16.0028V9.91002H5.39746V15.9549C5.39759 18.4638 6.98231 20.0282 9.46875 20.0282H15.6104C18.1204 20.0282 19.6895 18.4951 19.6895 16.0028ZM15.1084 16.2489C15.1006 15.8837 15.3911 15.582 15.752 15.5741H15.7598C16.1284 15.5742 16.4268 15.8766 16.4268 16.2489C16.4265 16.6218 16.1282 16.9236 15.7598 16.9237C15.3991 16.9158 15.1086 16.6139 15.1084 16.2489ZM8.65332 16.2489C8.65332 15.8837 8.93515 15.5821 9.2959 15.5653C9.64888 15.5653 9.93942 15.8447 9.94727 16.202C9.96276 16.5671 9.68002 16.8686 9.32715 16.8837C8.96659 16.9002 8.6692 16.6138 8.65332 16.2489ZM11.8848 16.2489C11.8848 15.8837 12.1666 15.5821 12.5273 15.5653C12.8803 15.5653 13.1709 15.8447 13.1787 16.202C13.1942 16.5671 12.9115 16.8686 12.5586 16.8837C12.1981 16.9001 11.9006 16.6138 11.8848 16.2489ZM8.66016 13.3671C8.66019 13.0019 8.94291 12.7001 9.30371 12.6835C9.6565 12.6835 9.947 12.962 9.95508 13.3182C9.97077 13.6843 9.68794 13.9867 9.33496 14.0018C8.97416 14.0185 8.67584 13.7315 8.66016 13.3671ZM11.8848 13.3671C11.8848 13.0019 12.1667 12.7003 12.5273 12.6835C12.8802 12.6835 13.1706 12.9619 13.1787 13.3182C13.1944 13.6843 12.9116 13.9867 12.5586 14.0018C12.198 14.0183 11.9004 13.7314 11.8848 13.3671ZM15.1162 13.3592C15.1162 12.994 15.3989 12.7002 15.7598 12.6922C16.1125 12.6923 16.3943 12.9771 16.4102 13.327C16.418 13.6922 16.1361 13.9946 15.7832 14.0018C15.4224 14.0098 15.1241 13.7315 15.1162 13.3671V13.3592Z" fill="#D9A3F8" fill-opacity="0.35"/>
<path d="M5.40012 9.90997L5.20573 9.90571C5.20458 9.95801 5.22455 10.0086 5.26114 10.0459C5.29772 10.0833 5.34782 10.1044 5.40012 10.1044V9.90997ZM5.52327 8.22116L5.71206 8.26791L5.71298 8.26382L5.52327 8.22116ZM19.6864 9.90997V10.1044C19.7387 10.1044 19.7888 10.0833 19.8254 10.046C19.8619 10.0086 19.8819 9.95801 19.8808 9.90572L19.6864 9.90997ZM19.564 8.22116L19.3743 8.2642L19.3754 8.26862L19.564 8.22116ZM16.0813 5.33105L16.0983 5.13736C16.0927 5.13686 16.087 5.13661 16.0813 5.13661V5.33105ZM9.006 5.33105V5.13661C9.00064 5.13661 8.99527 5.13683 8.98992 5.13728L9.006 5.33105ZM19.6895 9.91002H19.8839C19.8839 9.80263 19.7968 9.71558 19.6895 9.71558V9.91002ZM5.39746 9.91002V9.71558C5.29007 9.71558 5.20302 9.80263 5.20302 9.91002H5.39746ZM5.39746 15.9549H5.20302V15.955L5.39746 15.9549ZM15.6104 20.0282V20.2226H15.6104L15.6104 20.0282ZM15.752 15.5741V15.3796L15.7477 15.3797L15.752 15.5741ZM15.1084 16.2489L15.3029 16.2488L15.3028 16.2447L15.1084 16.2489ZM15.7598 15.5741L15.7598 15.3796H15.7598V15.5741ZM16.4268 16.2489L16.6212 16.249V16.2489H16.4268ZM15.7598 16.9237L15.7555 17.1181L15.7598 17.1181L15.7598 16.9237ZM9.2959 15.5653V15.3706L9.28688 15.3711L9.2959 15.5653ZM8.65332 16.2489H8.45869L8.45906 16.2573L8.65332 16.2489ZM9.94727 16.202L9.75283 16.2063L9.753 16.2103L9.94727 16.202ZM9.32715 16.8837L9.31885 16.6894L9.31826 16.6894L9.32715 16.8837ZM12.5273 15.5653V15.3706L12.5183 15.3711L12.5273 15.5653ZM11.8848 16.2489H11.6901L11.6905 16.2573L11.8848 16.2489ZM13.1787 16.202L12.9843 16.2063L12.9844 16.2103L13.1787 16.202ZM12.5586 16.8837L12.5503 16.6894L12.5497 16.6894L12.5586 16.8837ZM9.30371 12.6835L9.30374 12.4888L9.29474 12.4892L9.30371 12.6835ZM8.66016 13.3671L8.46553 13.367L8.46589 13.3754L8.66016 13.3671ZM9.95508 13.3182L9.76064 13.3226L9.76081 13.3266L9.95508 13.3182ZM9.33496 14.0018L9.32666 13.8076L9.326 13.8076L9.33496 14.0018ZM12.5273 12.6835V12.4888L12.5183 12.4892L12.5273 12.6835ZM11.8848 13.3671L11.6901 13.367L11.6905 13.3754L11.8848 13.3671ZM13.1787 13.3182L12.9843 13.3226L12.9844 13.3266L13.1787 13.3182ZM12.5586 14.0018L12.5503 13.8076L12.5497 13.8076L12.5586 14.0018ZM15.7598 12.6922L15.7598 12.4978L15.7555 12.4979L15.7598 12.6922ZM16.4102 13.327L16.6046 13.3228L16.6044 13.3182L16.4102 13.327ZM15.7832 14.0018L15.7792 13.8074L15.7789 13.8074L15.7832 14.0018ZM15.1162 13.3671H14.9217L14.9218 13.3712L15.1162 13.3671ZM5.40012 9.90997L5.59452 9.91422C5.59958 9.68322 5.61184 9.33812 5.63194 9.0145C5.6525 8.68361 5.68018 8.39646 5.71202 8.2679L5.52327 8.22116L5.33453 8.17442C5.29263 8.34361 5.26384 8.66782 5.2438 8.99039C5.22331 9.32022 5.21087 9.67064 5.20573 9.90571L5.40012 9.90997ZM19.6864 9.90997V9.71552H5.40012V9.90997V10.1044H19.6864V9.90997ZM19.564 8.22116L19.3754 8.26862C19.4066 8.39263 19.4342 8.67885 19.4546 9.01113C19.4746 9.33567 19.4869 9.68279 19.492 9.91421L19.6864 9.90997L19.8808 9.90572C19.8756 9.67027 19.8632 9.31789 19.8428 8.9872C19.8229 8.66425 19.7943 8.3395 19.7526 8.1737L19.564 8.22116ZM16.0813 5.33105L16.0642 5.52475C17.8003 5.67766 19.0183 6.69496 19.3744 8.26418L19.564 8.22116L19.7536 8.17814C19.3566 6.42851 17.9862 5.30363 16.0983 5.13736L16.0813 5.33105ZM9.006 5.33105V5.5255H16.0813V5.33105V5.13661H9.006V5.33105ZM5.52327 8.22116L5.71298 8.26382C6.06925 6.67936 7.27157 5.67008 9.02208 5.52483L9.006 5.33105L8.98992 5.13728C7.08514 5.29533 5.73033 6.41393 5.33357 8.1785L5.52327 8.22116ZM19.6895 9.91002H19.495V16.0028H19.6895H19.8839V9.91002H19.6895ZM5.39746 9.91002V10.1045H19.6895V9.91002V9.71558H5.39746V9.91002ZM5.39746 15.9549H5.59191V9.91002H5.39746H5.20302V15.9549H5.39746ZM9.46875 20.0282V19.8337C8.26681 19.8337 7.30194 19.4564 6.63801 18.7947C5.97419 18.133 5.59197 17.1678 5.59191 15.9549L5.39746 15.9549L5.20302 15.955C5.20308 17.2509 5.61329 18.3223 6.36347 19.0701C7.11354 19.8177 8.18425 20.2226 9.46875 20.2226V20.0282ZM15.6104 20.0282V19.8337H9.46875V20.0282V20.2226H15.6104V20.0282ZM19.6895 16.0028H19.495C19.495 17.2074 19.1167 18.1601 18.4548 18.8115C17.7925 19.4633 16.8256 19.8337 15.6104 19.8337L15.6104 20.0282L15.6104 20.2226C16.9051 20.2226 17.9779 19.8265 18.7276 19.0887C19.4777 18.3505 19.8839 17.2905 19.8839 16.0028H19.6895ZM15.752 15.5741L15.7477 15.3797C15.2794 15.39 14.9039 15.7807 14.914 16.2531L15.1084 16.2489L15.3028 16.2447C15.2973 15.9867 15.5029 15.7741 15.7562 15.7685L15.752 15.5741ZM15.7598 15.5741V15.3796H15.752V15.5741V15.7685H15.7598V15.5741ZM16.4268 16.2489H16.6212C16.6212 15.7714 16.2379 15.3798 15.7598 15.3796L15.7598 15.5741L15.7597 15.7685C16.0188 15.7686 16.2323 15.9818 16.2323 16.2489H16.4268ZM15.7598 16.9237L15.7598 17.1181C16.2378 17.118 16.6209 16.727 16.6212 16.249L16.4268 16.2489L16.2323 16.2488C16.2321 16.5166 16.0186 16.7292 15.7597 16.7292L15.7598 16.9237ZM15.1084 16.2489L14.914 16.249C14.9143 16.717 15.2865 17.1078 15.7555 17.1181L15.7598 16.9237L15.764 16.7293C15.5117 16.7237 15.303 16.5108 15.3028 16.2488L15.1084 16.2489ZM9.2959 15.5653L9.28688 15.3711C8.81928 15.3928 8.45887 15.7829 8.45887 16.2489H8.65332H8.84777C8.84777 15.9845 9.05102 15.7713 9.30492 15.7595L9.2959 15.5653ZM9.94727 16.202L10.1417 16.1977C10.1315 15.7337 9.75355 15.3709 9.2959 15.3709V15.5653V15.7597C9.5442 15.7597 9.74737 15.9557 9.75287 16.2063L9.94727 16.202ZM9.32715 16.8837L9.33545 17.0779C9.79558 17.0583 10.1616 16.6661 10.1415 16.1938L9.94727 16.202L9.753 16.2103C9.76394 16.4681 9.56446 16.6789 9.31885 16.6894L9.32715 16.8837ZM8.65332 16.2489L8.45906 16.2573C8.47932 16.723 8.86145 17.0996 9.33604 17.0779L9.32715 16.8837L9.31826 16.6894C9.07173 16.7007 8.85908 16.5046 8.84758 16.2404L8.65332 16.2489ZM12.5273 15.5653L12.5183 15.3711C12.0508 15.3928 11.6903 15.7829 11.6903 16.2489H11.8848H12.0792C12.0792 15.9845 12.2825 15.7714 12.5364 15.7595L12.5273 15.5653ZM13.1787 16.202L13.3731 16.1977C13.3629 15.7337 12.985 15.3709 12.5273 15.3709V15.5653V15.7597C12.7756 15.7597 12.9788 15.9557 12.9843 16.2063L13.1787 16.202ZM12.5586 16.8837L12.5669 17.0779C13.027 17.0583 13.393 16.6661 13.373 16.1938L13.1787 16.202L12.9844 16.2103C12.9954 16.4681 12.7959 16.6789 12.5503 16.6894L12.5586 16.8837ZM11.8848 16.2489L11.6905 16.2573C11.7108 16.723 12.093 17.0995 12.5675 17.0779L12.5586 16.8837L12.5497 16.6894C12.3032 16.7007 12.0905 16.5046 12.079 16.2404L11.8848 16.2489ZM9.30371 12.6835L9.29474 12.4892C8.82736 12.5108 8.46576 12.9008 8.46571 13.367L8.66016 13.3671L8.8546 13.3671C8.85463 13.1029 9.05846 12.8894 9.31269 12.8777L9.30371 12.6835ZM9.95508 13.3182L10.1495 13.3138C10.139 12.8504 9.76067 12.4891 9.30374 12.489L9.30371 12.6835L9.30368 12.8779C9.55232 12.8779 9.75503 13.0735 9.76068 13.3226L9.95508 13.3182ZM9.33496 14.0018L9.34326 14.1961C9.80398 14.1764 10.1696 13.7828 10.1493 13.3099L9.95508 13.3182L9.76081 13.3266C9.77192 13.5857 9.5719 13.7971 9.32666 13.8076L9.33496 14.0018ZM8.66016 13.3671L8.46589 13.3754C8.48593 13.8409 8.86926 14.218 9.34392 14.1961L9.33496 14.0018L9.326 13.8076C9.07906 13.819 8.86576 13.6221 8.85442 13.3587L8.66016 13.3671ZM12.5273 12.6835L12.5183 12.4892C12.0508 12.511 11.6904 12.9012 11.6903 13.367L11.8848 13.3671L12.0792 13.3671C12.0792 13.1027 12.2825 12.8895 12.5364 12.8777L12.5273 12.6835ZM13.1787 13.3182L13.3731 13.3138C13.3626 12.8504 12.9844 12.489 12.5273 12.489V12.6835V12.8779C12.776 12.8779 12.9787 13.0735 12.9843 13.3226L13.1787 13.3182ZM12.5586 14.0018L12.5669 14.1961C13.0276 14.1764 13.3932 13.7828 13.373 13.3099L13.1787 13.3182L12.9844 13.3266C12.9956 13.5857 12.7955 13.7971 12.5503 13.8076L12.5586 14.0018ZM11.8848 13.3671L11.6905 13.3754C11.7105 13.8405 12.0928 14.2177 12.5674 14.1961L12.5586 14.0018L12.5497 13.8076C12.3031 13.8188 12.0904 13.6222 12.079 13.3587L11.8848 13.3671ZM15.7598 12.6922L15.7555 12.4979C15.2863 12.5082 14.9218 12.8909 14.9218 13.3592H15.1162H15.3107C15.3107 13.0971 15.5116 12.8922 15.764 12.8866L15.7598 12.6922ZM16.4102 13.327L16.6044 13.3182C16.5841 12.8701 16.2221 12.4979 15.7598 12.4978L15.7598 12.6922L15.7597 12.8867C16.003 12.8868 16.2045 13.0841 16.2159 13.3358L16.4102 13.327ZM15.7832 14.0018L15.7872 14.1962C16.2531 14.1867 16.6146 13.7898 16.6046 13.3228L16.4102 13.327L16.2158 13.3312C16.2214 13.5946 16.0192 13.8025 15.7792 13.8074L15.7832 14.0018ZM15.1162 13.3671L14.9218 13.3712C14.932 13.8453 15.3215 14.2065 15.7875 14.1962L15.7832 14.0018L15.7789 13.8074C15.5233 13.813 15.3161 13.6177 15.3106 13.3629L15.1162 13.3671ZM15.1162 13.3592H14.9218V13.3671H15.1162H15.3107V13.3592H15.1162Z" fill="url(#paint2_linear_2090_2542)" mask="url(#path-3-outside-1_2090_2542)"/>
</g>
<foreignObject x="6.08918" y="1.23102" width="12.9086" height="9.47789"><div xmlns="http://www.w3.org/1999/xhtml" style="backdrop-filter:blur(1.46px);clip-path:url(#bgblur_1_2090_2542_clip_path);height:100%;width:100%"></div></foreignObject><g filter="url(#filter2_d_2090_2542)" data-figma-bg-blur-radius="2.91668">
<mask id="path-5-inside-2_2090_2542" fill="white">
<path fill-rule="evenodd" clip-rule="evenodd" d="M10.2138 7.18073C10.2138 7.53087 9.95498 7.7921 9.60985 7.7921C9.26471 7.7921 9.00586 7.53087 9.00586 7.18073V4.75987C9.00586 4.40972 9.26471 4.14771 9.60985 4.14771C9.95498 4.14771 10.2138 4.40972 10.2138 4.75987V7.18073ZM16.0811 7.18082C16.0811 7.53096 15.8144 7.79219 15.4771 7.79219C15.132 7.79219 14.8731 7.53096 14.8731 7.18082V4.75996C14.8731 4.40981 15.132 4.14779 15.4771 4.14779C15.8144 4.14779 16.0811 4.40981 16.0811 4.75996V7.18082Z"/>
</mask>
<path fill-rule="evenodd" clip-rule="evenodd" d="M10.2138 7.18073C10.2138 7.53087 9.95498 7.7921 9.60985 7.7921C9.26471 7.7921 9.00586 7.53087 9.00586 7.18073V4.75987C9.00586 4.40972 9.26471 4.14771 9.60985 4.14771C9.95498 4.14771 10.2138 4.40972 10.2138 4.75987V7.18073ZM16.0811 7.18082C16.0811 7.53096 15.8144 7.79219 15.4771 7.79219C15.132 7.79219 14.8731 7.53096 14.8731 7.18082V4.75996C14.8731 4.40981 15.132 4.14779 15.4771 4.14779C15.8144 4.14779 16.0811 4.40981 16.0811 4.75996V7.18082Z" fill="url(#paint3_linear_2090_2542)"/>
<path d="M9.60985 7.7921V7.86987C9.99876 7.86987 10.2916 7.573 10.2916 7.18073H10.2138H10.1361C10.1361 7.48875 9.9112 7.71432 9.60985 7.71432V7.7921ZM9.00586 7.18073H8.92808C8.92808 7.573 9.22093 7.86987 9.60985 7.86987V7.7921V7.71432C9.30849 7.71432 9.08364 7.48875 9.08364 7.18073H9.00586ZM9.00586 4.75987H8.92808V7.18073H9.00586H9.08364V4.75987H9.00586ZM9.60985 4.14771V4.06993C9.2208 4.06993 8.92808 4.36772 8.92808 4.75987H9.00586H9.08364C9.08364 4.45172 9.30862 4.22548 9.60985 4.22548V4.14771ZM10.2138 4.75987H10.2916C10.2916 4.36772 9.99889 4.06993 9.60985 4.06993V4.14771V4.22548C9.91107 4.22548 10.1361 4.45172 10.1361 4.75987H10.2138ZM10.2138 7.18073H10.2916V4.75987H10.2138H10.1361V7.18073H10.2138ZM15.4771 7.79219V7.86996C15.8575 7.86996 16.1589 7.57376 16.1589 7.18082H16.0811H16.0033C16.0033 7.48817 15.7713 7.71441 15.4771 7.71441V7.79219ZM14.8731 7.18082H14.7953C14.7953 7.57309 15.0882 7.86996 15.4771 7.86996V7.79219V7.71441C15.1758 7.71441 14.9509 7.48883 14.9509 7.18082H14.8731ZM14.8731 4.75996H14.7953V7.18082H14.8731H14.9509V4.75996H14.8731ZM15.4771 4.14779V4.07002C15.0881 4.07002 14.7953 4.36781 14.7953 4.75996H14.8731H14.9509C14.9509 4.4518 15.1759 4.22557 15.4771 4.22557V4.14779ZM16.0811 4.75996H16.1589C16.1589 4.36715 15.8577 4.07002 15.4771 4.07002V4.14779V4.22557C15.7712 4.22557 16.0033 4.45247 16.0033 4.75996H16.0811ZM16.0811 7.18082H16.1589V4.75996H16.0811H16.0033V7.18082H16.0811Z" fill="url(#paint4_linear_2090_2542)" mask="url(#path-5-inside-2_2090_2542)"/>
</g>
<foreignObject x="5.74323" y="9.77375" width="13.6058" height="10.0736"><div xmlns="http://www.w3.org/1999/xhtml" style="backdrop-filter:blur(1.46px);clip-path:url(#bgblur_2_2090_2542_clip_path);height:100%;width:100%"></div></foreignObject><g filter="url(#filter3_d_2090_2542)" data-figma-bg-blur-radius="2.91668">
<mask id="path-7-inside-3_2090_2542" fill="white">
<path d="M15.7664 15.5811C16.1349 15.5812 16.4324 15.8836 16.4324 16.2559C16.4321 16.6287 16.1347 16.9305 15.7664 16.9307C15.4057 16.9227 15.1152 16.6209 15.115 16.2559C15.1071 15.8906 15.3977 15.589 15.7585 15.5811H15.7664ZM9.30249 15.5723C9.65547 15.5723 9.94601 15.8517 9.95386 16.209C9.96937 16.5739 9.6874 16.8753 9.33472 16.8906C8.97401 16.9073 8.67578 16.6209 8.65991 16.2559C8.65991 15.8908 8.94187 15.5892 9.30249 15.5723ZM12.5349 15.5723C12.8877 15.5725 13.1775 15.8518 13.1853 16.209C13.2008 16.574 12.9189 16.8754 12.5662 16.8906C12.2055 16.9073 11.9072 16.6209 11.8914 16.2559C11.8914 15.8906 12.1741 15.5889 12.5349 15.5723ZM9.31128 12.6904C9.6641 12.6906 9.95383 12.9698 9.96167 13.3262C9.97709 13.6919 9.69525 13.9936 9.34253 14.0088C8.98171 14.0255 8.68341 13.7385 8.66772 13.374C8.66777 13.0088 8.95049 12.7071 9.31128 12.6904ZM12.5349 12.6904C12.8877 12.6907 13.1775 12.9698 13.1853 13.3262C13.2007 13.6919 12.9188 13.9935 12.5662 14.0088C12.2053 14.0255 11.907 13.7385 11.8914 13.374C11.8914 13.0088 12.1741 12.7071 12.5349 12.6904ZM15.7664 12.6992C16.1192 12.6994 16.4011 12.9849 16.4167 13.335C16.4244 13.6999 16.1425 14.0015 15.7898 14.0088C15.429 14.0167 15.1306 13.7385 15.1228 13.374V13.3662C15.1229 13.001 15.4056 12.7072 15.7664 12.6992Z"/>
</mask>
<path d="M15.7664 15.5811C16.1349 15.5812 16.4324 15.8836 16.4324 16.2559C16.4321 16.6287 16.1347 16.9305 15.7664 16.9307C15.4057 16.9227 15.1152 16.6209 15.115 16.2559C15.1071 15.8906 15.3977 15.589 15.7585 15.5811H15.7664ZM9.30249 15.5723C9.65547 15.5723 9.94601 15.8517 9.95386 16.209C9.96937 16.5739 9.6874 16.8753 9.33472 16.8906C8.97401 16.9073 8.67578 16.6209 8.65991 16.2559C8.65991 15.8908 8.94187 15.5892 9.30249 15.5723ZM12.5349 15.5723C12.8877 15.5725 13.1775 15.8518 13.1853 16.209C13.2008 16.574 12.9189 16.8754 12.5662 16.8906C12.2055 16.9073 11.9072 16.6209 11.8914 16.2559C11.8914 15.8906 12.1741 15.5889 12.5349 15.5723ZM9.31128 12.6904C9.6641 12.6906 9.95383 12.9698 9.96167 13.3262C9.97709 13.6919 9.69525 13.9936 9.34253 14.0088C8.98171 14.0255 8.68341 13.7385 8.66772 13.374C8.66777 13.0088 8.95049 12.7071 9.31128 12.6904ZM12.5349 12.6904C12.8877 12.6907 13.1775 12.9698 13.1853 13.3262C13.2007 13.6919 12.9188 13.9935 12.5662 14.0088C12.2053 14.0255 11.907 13.7385 11.8914 13.374C11.8914 13.0088 12.1741 12.7071 12.5349 12.6904ZM15.7664 12.6992C16.1192 12.6994 16.4011 12.9849 16.4167 13.335C16.4244 13.6999 16.1425 14.0015 15.7898 14.0088C15.429 14.0167 15.1306 13.7385 15.1228 13.374V13.3662C15.1229 13.001 15.4056 12.7072 15.7664 12.6992Z" fill="url(#paint5_linear_2090_2542)"/>
<path d="M15.7664 15.5811L15.7664 15.5033H15.7664V15.5811ZM16.4324 16.2559L16.5102 16.2559V16.2559H16.4324ZM15.7664 16.9307L15.7646 17.0084L15.7664 17.0084L15.7664 16.9307ZM15.115 16.2559L15.1928 16.2558L15.1928 16.2542L15.115 16.2559ZM15.7585 15.5811V15.5033L15.7568 15.5033L15.7585 15.5811ZM9.30249 15.5723V15.4944L9.29885 15.4946L9.30249 15.5723ZM9.95386 16.209L9.87608 16.2107L9.87615 16.2123L9.95386 16.209ZM9.33472 16.8906L9.33135 16.8129L9.33113 16.8129L9.33472 16.8906ZM8.65991 16.2559H8.58206L8.58221 16.2592L8.65991 16.2559ZM12.5349 15.5723L12.535 15.4944L12.5313 15.4946L12.5349 15.5723ZM13.1853 16.209L13.1075 16.2107L13.1076 16.2123L13.1853 16.209ZM12.5662 16.8906L12.5628 16.8129L12.5626 16.8129L12.5662 16.8906ZM11.8914 16.2559H11.8135L11.8137 16.2592L11.8914 16.2559ZM9.31128 12.6904L9.31132 12.6126L9.30769 12.6127L9.31128 12.6904ZM9.96167 13.3262L9.88389 13.3279L9.88396 13.3294L9.96167 13.3262ZM9.34253 14.0088L9.33918 13.9311L9.33894 13.9311L9.34253 14.0088ZM8.66772 13.374L8.58987 13.374L8.59002 13.3774L8.66772 13.374ZM12.5349 12.6904L12.535 12.6126L12.5313 12.6127L12.5349 12.6904ZM13.1853 13.3262L13.1075 13.3279L13.1076 13.3294L13.1853 13.3262ZM12.5662 14.0088L12.5628 13.9311L12.5626 13.9311L12.5662 14.0088ZM11.8914 13.374L11.8135 13.374L11.8137 13.3774L11.8914 13.374ZM15.7664 12.6992L15.7664 12.6214L15.7646 12.6215L15.7664 12.6992ZM16.4167 13.335L16.4945 13.3333L16.4944 13.3315L16.4167 13.335ZM15.7898 14.0088L15.7882 13.931L15.7881 13.931L15.7898 14.0088ZM15.1228 13.374H15.045L15.045 13.3757L15.1228 13.374ZM15.1228 13.3662L15.045 13.3662V13.3662H15.1228ZM15.7664 15.5811L15.7663 15.6588C16.0909 15.659 16.3546 15.9255 16.3546 16.2559H16.4324H16.5102C16.5102 15.8417 16.1788 15.5035 15.7664 15.5033L15.7664 15.5811ZM16.4324 16.2559L16.3546 16.2558C16.3544 16.5868 16.0908 16.8527 15.7663 16.8529L15.7664 16.9307L15.7664 17.0084C16.1787 17.0082 16.5099 16.6707 16.5102 16.2559L16.4324 16.2559ZM15.7664 16.9307L15.7681 16.8529C15.4507 16.8459 15.193 16.5797 15.1928 16.2558L15.115 16.2559L15.0372 16.2559C15.0375 16.6621 15.3606 16.9995 15.7646 17.0084L15.7664 16.9307ZM15.115 16.2559L15.1928 16.2542C15.1858 15.9318 15.4424 15.6658 15.7603 15.6588L15.7585 15.5811L15.7568 15.5033C15.353 15.5122 15.0285 15.8494 15.0372 16.2575L15.115 16.2559ZM15.7585 15.5811V15.6588H15.7664V15.5811V15.5033H15.7585V15.5811ZM9.30249 15.5723V15.65C9.6136 15.65 9.86919 15.8961 9.8761 16.2107L9.95386 16.209L10.0316 16.2073C10.0228 15.8073 9.69734 15.4945 9.30249 15.4945V15.5723ZM9.95386 16.209L9.87615 16.2123C9.88984 16.5344 9.64107 16.7995 9.33135 16.8129L9.33472 16.8906L9.33809 16.9683C9.73374 16.9512 10.0489 16.6134 10.0316 16.2057L9.95386 16.209ZM9.33472 16.8906L9.33113 16.8129C9.01594 16.8275 8.75172 16.5771 8.73762 16.2525L8.65991 16.2559L8.58221 16.2592C8.59983 16.6647 8.93208 16.9871 9.33831 16.9683L9.33472 16.8906ZM8.65991 16.2559H8.73769C8.73769 15.9311 8.98819 15.6648 9.30613 15.65L9.30249 15.5723L9.29885 15.4946C8.89554 15.5135 8.58213 15.8504 8.58213 16.2559H8.65991ZM12.5349 15.5723L12.5349 15.65C12.8457 15.6503 13.1006 15.8961 13.1075 16.2107L13.1853 16.209L13.2631 16.2073C13.2543 15.8075 12.9297 15.4947 12.535 15.4945L12.5349 15.5723ZM13.1853 16.209L13.1076 16.2123C13.1213 16.5345 12.8725 16.7995 12.5628 16.8129L12.5662 16.8906L12.5695 16.9683C12.9652 16.9512 13.2803 16.6135 13.263 16.2057L13.1853 16.209ZM12.5662 16.8906L12.5626 16.8129C12.2474 16.8275 11.9832 16.5771 11.9691 16.2525L11.8914 16.2559L11.8137 16.2592C11.8313 16.6647 12.1635 16.9871 12.5698 16.9683L12.5662 16.8906ZM11.8914 16.2559H11.9691C11.9691 15.9311 12.2203 15.6647 12.5385 15.65L12.5349 15.5723L12.5313 15.4946C12.1279 15.5132 11.8136 15.8502 11.8136 16.2559H11.8914ZM9.31128 12.6904L9.31124 12.7682C9.6222 12.7684 9.87701 13.0142 9.88391 13.3279L9.96167 13.3262L10.0394 13.3245C10.0306 12.9254 9.706 12.6129 9.31132 12.6127L9.31128 12.6904ZM9.96167 13.3262L9.88396 13.3294C9.89758 13.6525 9.64879 13.9177 9.33918 13.9311L9.34253 14.0088L9.34588 14.0865C9.74172 14.0694 10.0566 13.7313 10.0394 13.3229L9.96167 13.3262ZM9.34253 14.0088L9.33894 13.9311C9.02367 13.9457 8.75938 13.6947 8.74543 13.3707L8.66772 13.374L8.59002 13.3774C8.60745 13.7822 8.93974 14.1053 9.34612 14.0865L9.34253 14.0088ZM8.66772 13.374L8.7455 13.374C8.74555 13.0493 8.99671 12.7828 9.31487 12.7681L9.31128 12.6904L9.30769 12.6127C8.90426 12.6314 8.59 12.9684 8.58995 13.374L8.66772 13.374ZM12.5349 12.6904L12.5349 12.7682C12.8458 12.7684 13.1006 13.0142 13.1075 13.3279L13.1853 13.3262L13.2631 13.3245C13.2543 12.9254 12.9296 12.6129 12.535 12.6127L12.5349 12.6904ZM13.1853 13.3262L13.1076 13.3294C13.1212 13.6525 12.8724 13.9177 12.5628 13.9311L12.5662 14.0088L12.5695 14.0865C12.9653 14.0694 13.2802 13.7313 13.263 13.3229L13.1853 13.3262ZM12.5662 14.0088L12.5626 13.9311C12.2473 13.9457 11.983 13.6947 11.9691 13.3707L11.8914 13.374L11.8137 13.3774C11.8311 13.7822 12.1634 14.1053 12.5698 14.0865L12.5662 14.0088ZM11.8914 13.374L11.9691 13.374C11.9692 13.0493 12.2203 12.7828 12.5385 12.7681L12.5349 12.6904L12.5313 12.6127C12.1279 12.6314 11.8136 12.9684 11.8136 13.374L11.8914 13.374ZM15.7664 12.6992L15.7663 12.777C16.0752 12.7772 16.3251 13.0276 16.339 13.3384L16.4167 13.335L16.4944 13.3315C16.477 12.9422 16.1631 12.6217 15.7664 12.6214L15.7664 12.6992ZM16.4167 13.335L16.339 13.3366C16.3458 13.6607 16.0958 13.9247 15.7882 13.931L15.7898 14.0088L15.7914 14.0866C16.1892 14.0783 16.503 13.7391 16.4945 13.3333L16.4167 13.335ZM15.7898 14.0088L15.7881 13.931C15.4693 13.938 15.2075 13.6929 15.2006 13.3723L15.1228 13.374L15.045 13.3757C15.0538 13.784 15.3886 14.0954 15.7915 14.0865L15.7898 14.0088ZM15.1228 13.374H15.2006V13.3662H15.1228H15.045V13.374H15.1228ZM15.1228 13.3662L15.2006 13.3662C15.2006 13.0422 15.4506 12.784 15.7681 12.777L15.7664 12.6992L15.7646 12.6215C15.3605 12.6304 15.0451 12.9598 15.045 13.3662L15.1228 13.3662Z" fill="url(#paint6_linear_2090_2542)" mask="url(#path-7-inside-3_2090_2542)"/>
</g>
<foreignObject x="3.21003" y="6.4488" width="18.3751" height="7.04137"><div xmlns="http://www.w3.org/1999/xhtml" style="backdrop-filter:blur(1.46px);clip-path:url(#bgblur_3_2090_2542_clip_path);height:100%;width:100%"></div></foreignObject><path opacity="0.5" data-figma-bg-blur-radius="2.91668" d="M6.12671 9.96947C6.12671 10.3068 6.38793 10.5735 6.73808 10.5735L18.0563 10.5735C18.4064 10.5735 18.6685 10.3068 18.6685 9.96947C18.6685 9.62433 18.4064 9.36548 18.0563 9.36548L6.73808 9.36548C6.38793 9.36548 6.12671 9.62433 6.12671 9.96947Z" fill="url(#paint7_linear_2090_2542)" fill-opacity="0.5"/>
<defs>
<filter id="filter0_f_2090_2542" x="0.025265" y="0.000118494" width="17.7293" height="18.7517" filterUnits="userSpaceOnUse" color-interpolation-filters="sRGB">
<feFlood flood-opacity="0" result="BackgroundImageFix"/>
<feBlend mode="normal" in="SourceGraphic" in2="BackgroundImageFix" result="shape"/>
<feGaussianBlur stdDeviation="1.84723" result="effect1_foregroundBlur_2090_2542"/>
</filter>
<clipPath id="bgblur_0_2090_2542_clip_path" transform="translate(-0.536437 -0.47003)"><path fill-rule="evenodd" clip-rule="evenodd" d="M5.52327 8.22116C5.44954 8.5189 5.41032 9.4439 5.40012 9.90997H19.6864C19.6762 9.4431 19.6369 8.51096 19.564 8.22116C19.1875 6.56173 17.8932 5.49065 16.0813 5.33105H9.006C7.17835 5.48271 5.89979 6.54665 5.52327 8.22116ZM19.6895 16.0028V9.91002H5.39746V15.9549C5.39759 18.4638 6.98231 20.0282 9.46875 20.0282H15.6104C18.1204 20.0282 19.6895 18.4951 19.6895 16.0028ZM15.1084 16.2489C15.1006 15.8837 15.3911 15.582 15.752 15.5741H15.7598C16.1284 15.5742 16.4268 15.8766 16.4268 16.2489C16.4265 16.6218 16.1282 16.9236 15.7598 16.9237C15.3991 16.9158 15.1086 16.6139 15.1084 16.2489ZM8.65332 16.2489C8.65332 15.8837 8.93515 15.5821 9.2959 15.5653C9.64888 15.5653 9.93942 15.8447 9.94727 16.202C9.96276 16.5671 9.68002 16.8686 9.32715 16.8837C8.96659 16.9002 8.6692 16.6138 8.65332 16.2489ZM11.8848 16.2489C11.8848 15.8837 12.1666 15.5821 12.5273 15.5653C12.8803 15.5653 13.1709 15.8447 13.1787 16.202C13.1942 16.5671 12.9115 16.8686 12.5586 16.8837C12.1981 16.9001 11.9006 16.6138 11.8848 16.2489ZM8.66016 13.3671C8.66019 13.0019 8.94291 12.7001 9.30371 12.6835C9.6565 12.6835 9.947 12.962 9.95508 13.3182C9.97077 13.6843 9.68794 13.9867 9.33496 14.0018C8.97416 14.0185 8.67584 13.7315 8.66016 13.3671ZM11.8848 13.3671C11.8848 13.0019 12.1667 12.7003 12.5273 12.6835C12.8802 12.6835 13.1706 12.9619 13.1787 13.3182C13.1944 13.6843 12.9116 13.9867 12.5586 14.0018C12.198 14.0183 11.9004 13.7314 11.8848 13.3671ZM15.1162 13.3592C15.1162 12.994 15.3989 12.7002 15.7598 12.6922C16.1125 12.6923 16.3943 12.9771 16.4102 13.327C16.418 13.6922 16.1361 13.9946 15.7832 14.0018C15.4224 14.0098 15.1241 13.7315 15.1162 13.3671V13.3592Z"/>
</clipPath><filter id="filter2_d_2090_2542" x="6.08918" y="1.23102" width="12.9086" height="9.47789" filterUnits="userSpaceOnUse" color-interpolation-filters="sRGB">
<feFlood flood-opacity="0" result="BackgroundImageFix"/>
<feColorMatrix in="SourceAlpha" type="matrix" values="0 0 0 0 0 0 0 0 0 0 0 0 0 0 0 0 0 0 127 0" result="hardAlpha"/>
<feOffset dx="0.972227" dy="0.972227"/>
<feGaussianBlur stdDeviation="0.972227"/>
<feColorMatrix type="matrix" values="0 0 0 0 0.85098 0 0 0 0 0.639216 0 0 0 0 0.972549 0 0 0 0.2 0"/>
<feBlend mode="normal" in2="BackgroundImageFix" result="effect1_dropShadow_2090_2542"/>
<feBlend mode="normal" in="SourceGraphic" in2="effect1_dropShadow_2090_2542" result="shape"/>
</filter>
<clipPath id="bgblur_1_2090_2542_clip_path" transform="translate(-6.08918 -1.23102)"><path fill-rule="evenodd" clip-rule="evenodd" d="M10.2138 7.18073C10.2138 7.53087 9.95498 7.7921 9.60985 7.7921C9.26471 7.7921 9.00586 7.53087 9.00586 7.18073V4.75987C9.00586 4.40972 9.26471 4.14771 9.60985 4.14771C9.95498 4.14771 10.2138 4.40972 10.2138 4.75987V7.18073ZM16.0811 7.18082C16.0811 7.53096 15.8144 7.79219 15.4771 7.79219C15.132 7.79219 14.8731 7.53096 14.8731 7.18082V4.75996C14.8731 4.40981 15.132 4.14779 15.4771 4.14779C15.8144 4.14779 16.0811 4.40981 16.0811 4.75996V7.18082Z"/>
</clipPath><filter id="filter3_d_2090_2542" x="5.74323" y="9.77375" width="13.6058" height="10.0736" filterUnits="userSpaceOnUse" color-interpolation-filters="sRGB">
<feFlood flood-opacity="0" result="BackgroundImageFix"/>
<feColorMatrix in="SourceAlpha" type="matrix" values="0 0 0 0 0 0 0 0 0 0 0 0 0 0 0 0 0 0 127 0" result="hardAlpha"/>
<feOffset dx="0.972227" dy="0.972227"/>
<feGaussianBlur stdDeviation="0.972227"/>
<feColorMatrix type="matrix" values="0 0 0 0 0.85098 0 0 0 0 0.639216 0 0 0 0 0.972549 0 0 0 0.5 0"/>
<feBlend mode="normal" in2="BackgroundImageFix" result="effect1_dropShadow_2090_2542"/>
<feBlend mode="normal" in="SourceGraphic" in2="effect1_dropShadow_2090_2542" result="shape"/>
</filter>
<clipPath id="bgblur_2_2090_2542_clip_path" transform="translate(-5.74323 -9.77375)"><path d="M15.7664 15.5811C16.1349 15.5812 16.4324 15.8836 16.4324 16.2559C16.4321 16.6287 16.1347 16.9305 15.7664 16.9307C15.4057 16.9227 15.1152 16.6209 15.115 16.2559C15.1071 15.8906 15.3977 15.589 15.7585 15.5811H15.7664ZM9.30249 15.5723C9.65547 15.5723 9.94601 15.8517 9.95386 16.209C9.96937 16.5739 9.6874 16.8753 9.33472 16.8906C8.97401 16.9073 8.67578 16.6209 8.65991 16.2559C8.65991 15.8908 8.94187 15.5892 9.30249 15.5723ZM12.5349 15.5723C12.8877 15.5725 13.1775 15.8518 13.1853 16.209C13.2008 16.574 12.9189 16.8754 12.5662 16.8906C12.2055 16.9073 11.9072 16.6209 11.8914 16.2559C11.8914 15.8906 12.1741 15.5889 12.5349 15.5723ZM9.31128 12.6904C9.6641 12.6906 9.95383 12.9698 9.96167 13.3262C9.97709 13.6919 9.69525 13.9936 9.34253 14.0088C8.98171 14.0255 8.68341 13.7385 8.66772 13.374C8.66777 13.0088 8.95049 12.7071 9.31128 12.6904ZM12.5349 12.6904C12.8877 12.6907 13.1775 12.9698 13.1853 13.3262C13.2007 13.6919 12.9188 13.9935 12.5662 14.0088C12.2053 14.0255 11.907 13.7385 11.8914 13.374C11.8914 13.0088 12.1741 12.7071 12.5349 12.6904ZM15.7664 12.6992C16.1192 12.6994 16.4011 12.9849 16.4167 13.335C16.4244 13.6999 16.1425 14.0015 15.7898 14.0088C15.429 14.0167 15.1306 13.7385 15.1228 13.374V13.3662C15.1229 13.001 15.4056 12.7072 15.7664 12.6992Z"/>
</clipPath><clipPath id="bgblur_3_2090_2542_clip_path" transform="translate(-3.21003 -6.4488)"><path d="M6.12671 9.96947C6.12671 10.3068 6.38793 10.5735 6.73808 10.5735L18.0563 10.5735C18.4064 10.5735 18.6685 10.3068 18.6685 9.96947C18.6685 9.62433 18.4064 9.36548 18.0563 9.36548L6.73808 9.36548C6.38793 9.36548 6.12671 9.62433 6.12671 9.96947Z"/>
</clipPath><linearGradient id="paint0_linear_2090_2542" x1="18.9185" y1="5.57912" x2="-0.766899" y2="11.055" gradientUnits="userSpaceOnUse">
<stop stop-color="#D0AFFF"/>
<stop offset="1" stop-color="#C23AF5"/>
</linearGradient>
<linearGradient id="paint1_linear_2090_2542" x1="14.7572" y1="6.23227" x2="2.24219" y2="8.88108" gradientUnits="userSpaceOnUse">
<stop stop-color="#D0AFFF"/>
<stop offset="1" stop-color="#C23AF5"/>
</linearGradient>
<linearGradient id="paint2_linear_2090_2542" x1="7.67251" y1="7.04329" x2="17.0996" y2="18.3971" gradientUnits="userSpaceOnUse">
<stop stop-color="white" stop-opacity="0.25"/>
<stop offset="1" stop-color="white" stop-opacity="0"/>
</linearGradient>
<linearGradient id="paint3_linear_2090_2542" x1="15.6545" y1="7.22663" x2="15.867" y2="4.48926" gradientUnits="userSpaceOnUse">
<stop stop-color="white"/>
<stop offset="1" stop-color="white" stop-opacity="0.2"/>
</linearGradient>
<linearGradient id="paint4_linear_2090_2542" x1="15.4601" y1="4.69877" x2="18.3369" y2="5.77773" gradientUnits="userSpaceOnUse">
<stop stop-color="white" stop-opacity="0.25"/>
<stop offset="1" stop-color="white" stop-opacity="0"/>
</linearGradient>
<linearGradient id="paint5_linear_2090_2542" x1="15.8813" y1="13.4561" x2="2.77639" y2="12.5929" gradientUnits="userSpaceOnUse">
<stop stop-color="white"/>
<stop offset="1" stop-color="white" stop-opacity="0.2"/>
</linearGradient>
<linearGradient id="paint6_linear_2090_2542" x1="9.89716" y1="13.1844" x2="11.9386" y2="17.8191" gradientUnits="userSpaceOnUse">
<stop stop-color="white" stop-opacity="0.25"/>
<stop offset="1" stop-color="white" stop-opacity="0"/>
</linearGradient>
<linearGradient id="paint7_linear_2090_2542" x1="9.51177" y1="9.95242" x2="9.0621" y2="8.54398" gradientUnits="userSpaceOnUse">
<stop stop-color="white"/>
<stop offset="1" stop-color="white" stop-opacity="0.2"/>
</linearGradient>
</defs>
</svg>
