<svg width="18" height="18" viewBox="0 0 18 18" fill="none" xmlns="http://www.w3.org/2000/svg">
<foreignObject x="-4.60908" y="-4.727" width="26.0619" height="26.9208"><div xmlns="http://www.w3.org/1999/xhtml" style="backdrop-filter:blur(2.44px);clip-path:url(#bgblur_0_2074_1238_clip_path);height:100%;width:100%"></div></foreignObject><g data-figma-bg-blur-radius="4.88399">
<mask id="path-1-outside-1_2074_1238" maskUnits="userSpaceOnUse" x="-1.03385" y="-1.05097" width="18.9174" height="18.9174" fill="black">
<rect fill="white" x="-1.03385" y="-1.05097" width="18.9174" height="18.9174"/>
<path fill-rule="evenodd" clip-rule="evenodd" d="M7.92371 0.370482C4.01949 0.16587 0.690387 3.13131 0.487954 6.99397C0.390742 8.84888 1.0423 10.6669 2.2993 12.048C3.55629 13.4291 5.31576 14.2602 7.19063 14.3584C11.0948 14.563 14.4239 11.5976 14.6264 7.73493C14.8288 3.87227 11.8279 0.575093 7.92371 0.370482ZM12.8917 14.5411L14.464 16.7122L14.4621 16.7484C14.866 17.1921 15.5566 17.2283 16.0046 16.8292C16.4526 16.4301 16.4884 15.7469 16.0846 15.3032L14.194 13.4707C14.038 13.2987 13.8192 13.1951 13.586 13.1829C13.3528 13.1707 13.1244 13.2508 12.9513 13.4056C12.6217 13.7044 12.5952 14.2096 12.8917 14.5411Z"/>
</mask>
<path fill-rule="evenodd" clip-rule="evenodd" d="M7.92371 0.370482C4.01949 0.16587 0.690387 3.13131 0.487954 6.99397C0.390742 8.84888 1.0423 10.6669 2.2993 12.048C3.55629 13.4291 5.31576 14.2602 7.19063 14.3584C11.0948 14.563 14.4239 11.5976 14.6264 7.73493C14.8288 3.87227 11.8279 0.575093 7.92371 0.370482ZM12.8917 14.5411L14.464 16.7122L14.4621 16.7484C14.866 17.1921 15.5566 17.2283 16.0046 16.8292C16.4526 16.4301 16.4884 15.7469 16.0846 15.3032L14.194 13.4707C14.038 13.2987 13.8192 13.1951 13.586 13.1829C13.3528 13.1707 13.1244 13.2508 12.9513 13.4056C12.6217 13.7044 12.5952 14.2096 12.8917 14.5411Z" fill="#BA90FF" fill-opacity="0.35"/>
<path d="M2.2993 12.048L2.1488 12.1849L2.1488 12.1849L2.2993 12.048ZM14.464 16.7122L14.6288 16.5929C14.6561 16.6306 14.6696 16.6764 14.6672 16.7229L14.464 16.7122ZM12.8917 14.5411L13.0434 14.4055C13.0481 14.4107 13.0525 14.4161 13.0566 14.4218L12.8917 14.5411ZM14.4621 16.7484L14.3116 16.8854C14.275 16.8452 14.256 16.792 14.2589 16.7378L14.4621 16.7484ZM16.0046 16.8292L15.8692 16.6773V16.6773L16.0046 16.8292ZM16.0846 15.3032L16.2265 15.1567L16.2351 15.1662L16.0846 15.3032ZM14.194 13.4707L14.0521 13.6172L14.0433 13.6074L14.194 13.4707ZM12.9513 13.4056L12.8146 13.2548L12.8156 13.2539L12.9513 13.4056ZM0.487954 6.99397L0.284733 6.98332C0.493156 3.00637 3.91996 -0.0431245 7.93436 0.167261L7.92371 0.370482L7.91305 0.573702C4.11902 0.374865 0.887619 3.25624 0.691174 7.00462L0.487954 6.99397ZM2.2993 12.048L2.1488 12.1849C0.855443 10.7639 0.18466 8.89283 0.284733 6.98332L0.487954 6.99397L0.691174 7.00462C0.596824 8.80493 1.22916 10.5698 2.4498 11.911L2.2993 12.048ZM7.19063 14.3584L7.17998 14.5616C5.25191 14.4606 3.44208 13.6059 2.1488 12.1849L2.2993 12.048L2.4498 11.911C3.6705 13.2522 5.37961 14.0597 7.20128 14.1552L7.19063 14.3584ZM14.6264 7.73493L14.8296 7.74558C14.6212 11.7225 11.1944 14.772 7.17998 14.5616L7.19063 14.3584L7.20128 14.1552C10.9953 14.354 14.2267 11.4727 14.4232 7.72428L14.6264 7.73493ZM7.92371 0.370482L7.93436 0.167261C11.9488 0.377647 15.038 3.76864 14.8296 7.74558L14.6264 7.73493L14.4232 7.72428C14.6196 3.9759 11.7071 0.772539 7.91305 0.573702L7.92371 0.370482ZM14.464 16.7122L14.2992 16.8316L12.7269 14.6605L12.8917 14.5411L13.0566 14.4218L14.6288 16.5929L14.464 16.7122ZM14.4621 16.7484L14.2589 16.7378L14.2608 16.7016L14.464 16.7122L14.6672 16.7229L14.6653 16.7591L14.4621 16.7484ZM16.0046 16.8292L16.14 16.9812C15.6086 17.4545 14.7905 17.4116 14.3116 16.8854L14.4621 16.7484L14.6126 16.6114C14.9414 16.9727 15.5045 17.0022 15.8692 16.6773L16.0046 16.8292ZM16.0846 15.3032L16.2351 15.1662C16.7152 15.6937 16.6726 16.5068 16.14 16.9812L16.0046 16.8292L15.8692 16.6773C16.2327 16.3535 16.2617 15.8001 15.9341 15.4401L16.0846 15.3032ZM14.194 13.4707L14.3357 13.3246L16.2262 15.157L16.0846 15.3032L15.9429 15.4493L14.0524 13.6168L14.194 13.4707ZM13.586 13.1829L13.5967 12.9797C13.8832 12.9947 14.1524 13.1219 14.3448 13.334L14.194 13.4707L14.0433 13.6074C13.9236 13.4754 13.7552 13.3955 13.5754 13.3861L13.586 13.1829ZM12.9513 13.4056L12.8156 13.2539C13.0291 13.0631 13.3102 12.9646 13.5967 12.9797L13.586 13.1829L13.5754 13.3861C13.3955 13.3767 13.2198 13.4385 13.0869 13.5573L12.9513 13.4056ZM12.8917 14.5411L12.7401 14.6768C12.369 14.2618 12.4022 13.6287 12.8146 13.2548L12.9513 13.4056L13.0879 13.5564C12.8413 13.78 12.8215 14.1573 13.0434 14.4055L12.8917 14.5411Z" fill="url(#paint0_linear_2074_1238)" mask="url(#path-1-outside-1_2074_1238)"/>
</g>
<defs>
<clipPath id="bgblur_0_2074_1238_clip_path" transform="translate(4.60908 4.727)"><path fill-rule="evenodd" clip-rule="evenodd" d="M7.92371 0.370482C4.01949 0.16587 0.690387 3.13131 0.487954 6.99397C0.390742 8.84888 1.0423 10.6669 2.2993 12.048C3.55629 13.4291 5.31576 14.2602 7.19063 14.3584C11.0948 14.563 14.4239 11.5976 14.6264 7.73493C14.8288 3.87227 11.8279 0.575093 7.92371 0.370482ZM12.8917 14.5411L14.464 16.7122L14.4621 16.7484C14.866 17.1921 15.5566 17.2283 16.0046 16.8292C16.4526 16.4301 16.4884 15.7469 16.0846 15.3032L14.194 13.4707C14.038 13.2987 13.8192 13.1951 13.586 13.1829C13.3528 13.1707 13.1244 13.2508 12.9513 13.4056C12.6217 13.7044 12.5952 14.2096 12.8917 14.5411Z"/>
</clipPath><linearGradient id="paint0_linear_2074_1238" x1="2.61831" y1="2.69542" x2="15.2719" y2="17.0946" gradientUnits="userSpaceOnUse">
<stop stop-color="white" stop-opacity="0.25"/>
<stop offset="1" stop-color="white" stop-opacity="0"/>
</linearGradient>
</defs>
</svg>
