<svg width="248" height="200" viewBox="0 0 248 200" fill="none" xmlns="http://www.w3.org/2000/svg">
<path d="M159.01 103.676L157.832 58.9225C157.821 58.4816 157.46 58.1302 157.019 58.1302H145.498H141.089C137.034 58.1302 133.312 60.3721 131.416 63.9562L131.089 64.5746C130.469 65.7452 130.146 67.0495 130.146 68.3738C130.146 72.1663 132.769 75.4543 136.467 76.2959L141.131 77.3572C146.047 78.7088 146.231 85.6127 141.394 87.225L140.199 87.6236C139.734 87.7783 139.248 87.8572 138.759 87.8572H127.998H122.008V51.6572C122.008 51.4915 121.874 51.3572 121.708 51.3572H117.676C117.566 51.3572 117.465 51.4171 117.413 51.5135L111.498 62.3572L104.119 42.3896C104.111 42.3686 104.097 42.3508 104.078 42.3391L100.187 39.9487C100.121 39.9082 100.037 39.9546 100.035 40.0319L98.9998 92.2552C98.9987 92.3112 99.0438 92.3572 99.0998 92.3572H104.007C104.062 92.3572 104.107 92.3124 104.107 92.2572V52.8411L110.837 74.3441C110.893 74.5209 111.138 74.5339 111.212 74.3638L117.498 59.8572L116.998 88.3572V92.3572H137.722C139.982 92.3572 142.228 92.0188 144.388 91.3534L144.772 91.2349C145.577 90.9868 146.309 90.5458 146.905 89.9503C148.268 88.5873 149.183 86.8412 149.527 84.9448L149.605 84.5167C149.864 83.0914 149.836 81.6287 149.522 80.2145L149.463 79.9489C149.159 78.5828 148.472 77.3316 147.483 76.342C146.184 75.0433 144.556 74.1226 142.774 73.6787L138.92 72.7185C137.978 72.484 137.138 71.9503 136.525 71.1975C135.823 70.3349 135.467 69.2422 135.525 68.1315L135.533 67.9796C135.67 65.3883 137.811 63.3572 140.406 63.3572H151.998L152.907 97.1661C152.919 97.6239 152.551 98.0017 152.093 98.0017H94.7689C94.3119 98.0017 93.9448 97.6181 93.9556 97.1613L95.5441 30.0455C95.5546 29.6037 95.9159 29.2437 96.3578 29.2437H99.2248C99.6742 29.2437 100.038 28.8794 100.038 28.43V24.7683C100.038 24.3189 99.6742 23.9546 99.2248 23.9546H91.0674C90.626 23.9546 90.2651 24.3065 90.254 24.7478L88.2608 103.677C88.2493 104.134 88.6168 104.511 89.0743 104.511H158.197C158.654 104.511 159.022 104.134 159.01 103.676Z" fill="url(#paint0_linear_2403_2323)"/>
<path d="M156.149 52.8411H151.668C151.235 52.8411 150.877 52.5019 150.855 52.0694L149.714 30.0154C149.692 29.5829 149.335 29.2437 148.902 29.2437H144.792C144.343 29.2437 143.979 28.8794 143.979 28.43V24.7683C143.979 24.3189 144.343 23.9546 144.792 23.9546H154.997C155.433 23.9546 155.792 24.2983 155.81 24.734L156.962 51.9931C156.981 52.4555 156.612 52.8411 156.149 52.8411Z" fill="url(#paint1_linear_2403_2323)"/>
<path d="M132.18 24.7683V28.43C132.18 28.8794 131.815 29.2437 131.366 29.2437H115.092C114.643 29.2437 114.278 28.8794 114.278 28.43V24.7683C114.278 24.3189 114.643 23.9546 115.092 23.9546H131.366C131.815 23.9546 132.18 24.3189 132.18 24.7683Z" fill="url(#paint2_linear_2403_2323)"/>
<path d="M109.018 32.0917H104.956C104.493 32.0917 104.123 31.7059 104.143 31.2434L104.754 16.8883C104.864 14.305 105.518 11.7741 106.675 9.46147L106.965 8.88193C107.765 7.28056 108.85 5.83767 110.165 4.62329C112.316 2.63756 115.008 1.33404 117.9 0.877446L119.8 0.577409C120.727 0.430963 121.667 0.37866 122.605 0.421297L123.869 0.478743C127.918 0.662789 131.766 2.29492 134.713 5.07794C136.528 6.79173 137.941 8.88594 138.85 11.2103L139.574 13.0595C140.605 15.6939 141.195 18.4801 141.32 21.3063L141.906 34.4966C141.927 34.9598 141.557 35.3465 141.094 35.3465H136.637C136.195 35.3465 135.834 34.9931 135.824 34.5508L135.556 22.4953C135.476 18.9018 134.601 15.3707 132.993 12.1559L132.255 10.9954C130.893 8.85568 128.814 7.27088 126.39 6.52502C125.373 6.21217 124.316 6.05311 123.252 6.05311H122.008C119.881 6.05311 117.797 6.65085 115.994 7.77816L115.499 8.08737L113.465 10.1216C111.61 12.5066 110.522 15.398 110.344 18.4141L110.21 20.6998L109.831 31.307C109.815 31.7448 109.456 32.0917 109.018 32.0917Z" fill="url(#paint3_linear_2403_2323)"/>
<path d="M159.01 103.676L157.832 58.9225C157.821 58.4816 157.46 58.1302 157.019 58.1302H145.498H141.089C137.034 58.1302 133.312 60.3721 131.416 63.9562L131.089 64.5746C130.469 65.7452 130.146 67.0495 130.146 68.3738C130.146 72.1663 132.769 75.4543 136.467 76.2959L141.131 77.3572C146.047 78.7088 146.231 85.6127 141.394 87.225L140.199 87.6236C139.734 87.7783 139.248 87.8572 138.759 87.8572H127.998H122.008V51.6572C122.008 51.4915 121.874 51.3572 121.708 51.3572H117.676C117.566 51.3572 117.465 51.4171 117.413 51.5135L111.498 62.3572L104.119 42.3896C104.111 42.3686 104.097 42.3508 104.078 42.3391L100.187 39.9487C100.121 39.9082 100.037 39.9546 100.035 40.0319L98.9998 92.2552C98.9987 92.3112 99.0438 92.3572 99.0998 92.3572H104.007C104.062 92.3572 104.107 92.3124 104.107 92.2572V52.8411L110.837 74.3441C110.893 74.5209 111.138 74.5339 111.212 74.3638L117.498 59.8572L116.998 88.3572V92.3572H137.722C139.982 92.3572 142.228 92.0188 144.388 91.3534L144.772 91.2349C145.577 90.9868 146.309 90.5458 146.905 89.9503C148.268 88.5873 149.183 86.8412 149.527 84.9448L149.605 84.5167C149.864 83.0914 149.836 81.6287 149.522 80.2145L149.463 79.9489C149.159 78.5828 148.472 77.3316 147.483 76.342C146.184 75.0433 144.556 74.1226 142.774 73.6787L138.92 72.7185C137.978 72.484 137.138 71.9503 136.525 71.1975C135.823 70.3349 135.467 69.2422 135.525 68.1315L135.533 67.9796C135.67 65.3883 137.811 63.3572 140.406 63.3572H151.998L152.907 97.1661C152.919 97.6239 152.551 98.0017 152.093 98.0017H94.7689C94.3119 98.0017 93.9448 97.6181 93.9556 97.1613L95.5441 30.0455C95.5546 29.6037 95.9159 29.2437 96.3578 29.2437H99.2248C99.6742 29.2437 100.038 28.8794 100.038 28.43V24.7683C100.038 24.3189 99.6742 23.9546 99.2248 23.9546H91.0674C90.626 23.9546 90.2651 24.3065 90.254 24.7478L88.2608 103.677C88.2493 104.134 88.6168 104.511 89.0743 104.511H158.197C158.654 104.511 159.022 104.134 159.01 103.676Z" stroke="url(#paint4_linear_2403_2323)" stroke-width="0.813704"/>
<path d="M156.149 52.8411H151.668C151.235 52.8411 150.877 52.5019 150.855 52.0694L149.714 30.0154C149.692 29.5829 149.335 29.2437 148.902 29.2437H144.792C144.343 29.2437 143.979 28.8794 143.979 28.43V24.7683C143.979 24.3189 144.343 23.9546 144.792 23.9546H154.997C155.433 23.9546 155.792 24.2983 155.81 24.734L156.962 51.9931C156.981 52.4555 156.612 52.8411 156.149 52.8411Z" stroke="url(#paint5_linear_2403_2323)" stroke-width="0.813704"/>
<path d="M132.18 24.7683V28.43C132.18 28.8794 131.815 29.2437 131.366 29.2437H115.092C114.643 29.2437 114.278 28.8794 114.278 28.43V24.7683C114.278 24.3189 114.643 23.9546 115.092 23.9546H131.366C131.815 23.9546 132.18 24.3189 132.18 24.7683Z" stroke="url(#paint6_linear_2403_2323)" stroke-width="0.813704"/>
<path d="M109.018 32.0917H104.956C104.493 32.0917 104.123 31.7059 104.143 31.2434L104.754 16.8883C104.864 14.305 105.518 11.7741 106.675 9.46147L106.965 8.88193C107.765 7.28056 108.85 5.83767 110.165 4.62329C112.316 2.63756 115.008 1.33404 117.9 0.877446L119.8 0.577409C120.727 0.430963 121.667 0.37866 122.605 0.421297L123.869 0.478743C127.918 0.662789 131.766 2.29492 134.713 5.07794C136.528 6.79173 137.941 8.88594 138.85 11.2103L139.574 13.0595C140.605 15.6939 141.195 18.4801 141.32 21.3063L141.906 34.4966C141.927 34.9598 141.557 35.3465 141.094 35.3465H136.637C136.195 35.3465 135.834 34.9931 135.824 34.5508L135.556 22.4953C135.476 18.9018 134.601 15.3707 132.993 12.1559L132.255 10.9954C130.893 8.85568 128.814 7.27088 126.39 6.52502C125.373 6.21217 124.316 6.05311 123.252 6.05311H122.008C119.881 6.05311 117.797 6.65085 115.994 7.77816L115.499 8.08737L113.465 10.1216C111.61 12.5066 110.522 15.398 110.344 18.4141L110.21 20.6998L109.831 31.307C109.815 31.7448 109.456 32.0917 109.018 32.0917Z" stroke="url(#paint7_linear_2403_2323)" stroke-width="0.813704"/>
<path d="M8.54759 158.511H0.438043C0.431071 158.511 0.427015 158.504 0.431068 158.498L2.08527 156.182C2.39678 155.746 2.56424 155.223 2.56424 154.687V131.083L0.608836 128.736C0.534399 128.647 0.597917 128.511 0.714192 128.511H8.47701C8.53024 128.511 8.57866 128.542 8.60122 128.59L17.9928 148.654L29.0965 128.582C29.1207 128.539 29.1666 128.511 29.2165 128.511H37.4406C37.5522 128.511 37.617 128.638 37.5522 128.728L35.5642 131.511V154.687C35.5642 155.223 35.7317 155.746 36.0432 156.182L37.6974 158.498C37.7015 158.504 37.6974 158.511 37.6904 158.511H27.0095C27.0025 158.511 26.9984 158.504 27.0025 158.498L28.6567 156.182C28.9682 155.746 29.1357 155.223 29.1357 154.687V136.654L18.8731 158.462C18.859 158.492 18.8288 158.511 18.7956 158.511L17.1889 158.511C17.1563 158.511 17.1265 158.493 17.1121 158.464L6.42139 136.824V154.687C6.42139 155.223 6.58885 155.746 6.90036 156.182L8.55456 158.498C8.55861 158.504 8.55456 158.511 8.54759 158.511Z" fill="url(#paint8_linear_2403_2323)"/>
<path d="M60.2719 158.511H52.8935C52.8202 158.511 52.7807 158.426 52.8284 158.37L55.2785 155.511L64.2495 135.123C64.5513 134.437 64.7071 133.696 64.7071 132.947C64.7071 132.006 64.4617 131.082 63.9951 130.265L63.0661 128.64C63.0334 128.583 63.0747 128.511 63.1405 128.511H69.4214L79.7842 153.459C80.5781 155.37 81.8233 157.061 83.4132 158.386C83.4644 158.428 83.4342 158.511 83.3677 158.511H72.5478C72.4922 158.511 72.4578 158.451 72.4865 158.403L72.6703 158.097C73.3395 156.981 73.5897 155.664 73.3758 154.381C73.3111 153.993 73.2049 153.613 73.0588 153.248L72.6369 152.193C72.5067 151.868 72.1916 151.654 71.8411 151.654H60.9866C60.6437 151.654 60.3338 151.859 60.1987 152.174L59.4574 153.904C59.2451 154.399 59.1357 154.932 59.1357 155.471C59.1357 156.332 59.4149 157.169 59.9314 157.858L60.3317 158.392C60.3686 158.441 60.3335 158.511 60.2719 158.511Z" fill="url(#paint9_linear_2403_2323)"/>
<path d="M108.664 158.511H97.8737C97.8039 158.511 97.7634 158.433 97.8039 158.376L99.85 155.511V131.083L97.8243 128.652C97.7777 128.596 97.8174 128.511 97.8901 128.511H108.274C110.923 128.511 113.552 128.975 116.042 129.88C116.672 130.109 117.262 130.435 117.791 130.847L118.829 131.654C120.141 132.674 121.086 134.093 121.524 135.696C121.923 137.159 121.88 138.708 121.4 140.147L120.941 141.526C120.599 142.55 120.024 143.48 119.261 144.244C118.61 144.894 117.859 145.435 117.036 145.847L114.85 146.94L122.173 155.362C122.995 156.307 124.015 157.061 125.16 157.57L126.909 158.347C126.994 158.385 126.967 158.511 126.875 158.511H118.321C118.294 158.511 118.269 158.499 118.253 158.478L110.136 147.797H106.279V155.511L108.729 158.37C108.776 158.426 108.737 158.511 108.664 158.511Z" fill="url(#paint10_linear_2403_2323)"/>
<path d="M151.096 158.083H141.153C141.085 158.083 141.044 158.007 141.082 157.95L142.707 155.511V131.511L141.082 129.073C141.044 129.016 141.085 128.94 141.153 128.94H151.096C151.168 128.94 151.208 129.025 151.161 129.081L149.136 131.511V143.94L161.136 131.083L159.928 129.07C159.894 129.013 159.935 128.94 160.001 128.94H169.067C169.144 128.94 169.182 129.034 169.127 129.087L155.564 142.226L171.275 157.937C171.329 157.991 171.291 158.083 171.214 158.083H161.175C161.15 158.083 161.126 158.072 161.11 158.054L149.136 144.369V155.511L151.161 157.942C151.208 157.998 151.168 158.083 151.096 158.083Z" fill="url(#paint11_linear_2403_2323)"/>
<path d="M208.193 128.511H186.164C186.094 128.511 186.053 128.592 186.096 128.649L188.564 131.94V155.511L186.139 157.937C186.085 157.991 186.123 158.083 186.2 158.083H208.193C208.24 158.083 208.279 158.045 208.279 157.997V151.654L205.707 155.511H194.136V144.797H200.136L202.994 147.247C203.05 147.295 203.136 147.255 203.136 147.182V139.412C203.136 139.339 203.05 139.299 202.994 139.347L200.136 141.797H194.136V131.94H205.707L208.279 134.94V128.597C208.279 128.55 208.24 128.511 208.193 128.511Z" fill="url(#paint12_linear_2403_2323)"/>
<path d="M220.707 128.597V134.749C220.707 134.823 220.794 134.862 220.85 134.813L222.859 133.027C223.958 132.051 225.376 131.511 226.845 131.511H231.421V155.083L228.971 157.941C228.924 157.997 228.963 158.083 229.036 158.083H238.949C239.023 158.083 239.062 157.997 239.014 157.941L236.564 155.083V131.511H240.46C241.822 131.511 243.144 131.975 244.208 132.826L246.711 134.829C246.767 134.874 246.85 134.834 246.85 134.762V128.597C246.85 128.55 246.812 128.511 246.764 128.511H220.793C220.745 128.511 220.707 128.55 220.707 128.597Z" fill="url(#paint13_linear_2403_2323)"/>
<path d="M8.54759 158.511H0.438043C0.431071 158.511 0.427015 158.504 0.431068 158.498L2.08527 156.182C2.39678 155.746 2.56424 155.223 2.56424 154.687V131.083L0.608836 128.736C0.534399 128.647 0.597917 128.511 0.714192 128.511H8.47701C8.53024 128.511 8.57866 128.542 8.60122 128.59L17.9928 148.654L29.0965 128.582C29.1207 128.539 29.1666 128.511 29.2165 128.511H37.4406C37.5522 128.511 37.617 128.638 37.5522 128.728L35.5642 131.511V154.687C35.5642 155.223 35.7317 155.746 36.0432 156.182L37.6974 158.498C37.7015 158.504 37.6974 158.511 37.6904 158.511H27.0095C27.0025 158.511 26.9984 158.504 27.0025 158.498L28.6567 156.182C28.9682 155.746 29.1357 155.223 29.1357 154.687V136.654L18.8731 158.462C18.859 158.492 18.8288 158.511 18.7956 158.511L17.1889 158.511C17.1563 158.511 17.1265 158.493 17.1121 158.464L6.42139 136.824V154.687C6.42139 155.223 6.58885 155.746 6.90036 156.182L8.55456 158.498C8.55861 158.504 8.55456 158.511 8.54759 158.511Z" stroke="url(#paint14_linear_2403_2323)" stroke-width="0.857143"/>
<path d="M60.2719 158.511H52.8935C52.8202 158.511 52.7807 158.426 52.8284 158.37L55.2785 155.511L64.2495 135.123C64.5513 134.437 64.7071 133.696 64.7071 132.947C64.7071 132.006 64.4617 131.082 63.9951 130.265L63.0661 128.64C63.0334 128.583 63.0747 128.511 63.1405 128.511H69.4214L79.7842 153.459C80.5781 155.37 81.8233 157.061 83.4132 158.386C83.4644 158.428 83.4342 158.511 83.3677 158.511H72.5478C72.4922 158.511 72.4578 158.451 72.4865 158.403L72.6703 158.097C73.3395 156.981 73.5897 155.664 73.3758 154.381C73.3111 153.993 73.2049 153.613 73.0588 153.248L72.6369 152.193C72.5067 151.868 72.1916 151.654 71.8411 151.654H60.9866C60.6437 151.654 60.3338 151.859 60.1987 152.174L59.4574 153.904C59.2451 154.399 59.1357 154.932 59.1357 155.471C59.1357 156.332 59.4149 157.169 59.9314 157.858L60.3317 158.392C60.3686 158.441 60.3335 158.511 60.2719 158.511Z" stroke="url(#paint15_linear_2403_2323)" stroke-width="0.857143"/>
<path d="M108.664 158.511H97.8737C97.8039 158.511 97.7634 158.433 97.8039 158.376L99.85 155.511V131.083L97.8243 128.652C97.7777 128.596 97.8174 128.511 97.8901 128.511H108.274C110.923 128.511 113.552 128.975 116.042 129.88C116.672 130.109 117.262 130.435 117.791 130.847L118.829 131.654C120.141 132.674 121.086 134.093 121.524 135.696C121.923 137.159 121.88 138.708 121.4 140.147L120.941 141.526C120.599 142.55 120.024 143.48 119.261 144.244C118.61 144.894 117.859 145.435 117.036 145.847L114.85 146.94L122.173 155.362C122.995 156.307 124.015 157.061 125.16 157.57L126.909 158.347C126.994 158.385 126.967 158.511 126.875 158.511H118.321C118.294 158.511 118.269 158.499 118.253 158.478L110.136 147.797H106.279V155.511L108.729 158.37C108.776 158.426 108.737 158.511 108.664 158.511Z" stroke="url(#paint16_linear_2403_2323)" stroke-width="0.857143"/>
<path d="M151.096 158.083H141.153C141.085 158.083 141.044 158.007 141.082 157.95L142.707 155.511V131.511L141.082 129.073C141.044 129.016 141.085 128.94 141.153 128.94H151.096C151.168 128.94 151.208 129.025 151.161 129.081L149.136 131.511V143.94L161.136 131.083L159.928 129.07C159.894 129.013 159.935 128.94 160.001 128.94H169.067C169.144 128.94 169.182 129.034 169.127 129.087L155.564 142.226L171.275 157.937C171.329 157.991 171.291 158.083 171.214 158.083H161.175C161.15 158.083 161.126 158.072 161.11 158.054L149.136 144.369V155.511L151.161 157.942C151.208 157.998 151.168 158.083 151.096 158.083Z" stroke="url(#paint17_linear_2403_2323)" stroke-width="0.857143"/>
<path d="M208.193 128.511H186.164C186.094 128.511 186.053 128.592 186.096 128.649L188.564 131.94V155.511L186.139 157.937C186.085 157.991 186.123 158.083 186.2 158.083H208.193C208.24 158.083 208.279 158.045 208.279 157.997V151.654L205.707 155.511H194.136V144.797H200.136L202.994 147.247C203.05 147.295 203.136 147.255 203.136 147.182V139.412C203.136 139.339 203.05 139.299 202.994 139.347L200.136 141.797H194.136V131.94H205.707L208.279 134.94V128.597C208.279 128.55 208.24 128.511 208.193 128.511Z" stroke="url(#paint18_linear_2403_2323)" stroke-width="0.857143"/>
<path d="M220.707 128.597V134.749C220.707 134.823 220.794 134.862 220.85 134.813L222.859 133.027C223.958 132.051 225.376 131.511 226.845 131.511H231.421V155.083L228.971 157.941C228.924 157.997 228.963 158.083 229.036 158.083H238.949C239.023 158.083 239.062 157.997 239.014 157.941L236.564 155.083V131.511H240.46C241.822 131.511 243.144 131.975 244.208 132.826L246.711 134.829C246.767 134.874 246.85 134.834 246.85 134.762V128.597C246.85 128.55 246.812 128.511 246.764 128.511H220.793C220.745 128.511 220.707 128.55 220.707 128.597Z" stroke="url(#paint19_linear_2403_2323)" stroke-width="0.857143"/>
<path d="M66.4213 137.083L71.1356 148.654H61.707L66.4213 137.083Z" fill="#F4EBFA"/>
<path d="M106.279 131.597C106.279 131.55 106.317 131.511 106.365 131.511H108.554C109.871 131.511 111.166 131.855 112.311 132.509L112.541 132.641C113.217 133.027 113.814 133.538 114.301 134.146C114.941 134.946 115.355 135.904 115.5 136.919L115.536 137.167C115.649 137.962 115.618 138.77 115.444 139.553L115.319 140.118C115.018 141.47 114.206 142.655 113.053 143.424L112.915 143.516C112.494 143.797 112.028 144.003 111.537 144.125C110.891 144.287 110.228 144.369 109.562 144.369H109.279H106.365C106.317 144.369 106.279 144.33 106.279 144.283V131.597Z" fill="#F4EBFA"/>
<mask id="path-5-outside-1_2403_2323" maskUnits="userSpaceOnUse" x="74.1357" y="181.511" width="100" height="14" fill="black">
<rect fill="white" x="74.1357" y="181.511" width="100" height="14"/>
<path d="M82.7995 191.738C82.7995 191.373 82.736 191.047 82.6088 190.761C82.4817 190.475 82.2777 190.218 81.997 189.99C81.7162 189.762 81.348 189.553 80.8924 189.362C80.4421 189.172 79.8885 188.986 79.2316 188.806C78.6436 188.647 78.1138 188.478 77.6424 188.297C77.1709 188.112 76.7683 187.9 76.4345 187.662C76.1061 187.423 75.8544 187.14 75.6796 186.811C75.5048 186.478 75.4174 186.078 75.4174 185.612C75.4174 185.172 75.5127 184.777 75.7035 184.428C75.8995 184.078 76.1696 183.781 76.514 183.538C76.8636 183.294 77.2715 183.108 77.7377 182.981C78.2039 182.849 78.7098 182.783 79.2555 182.783C80.0077 182.783 80.6726 182.926 81.25 183.212C81.8274 183.498 82.2804 183.898 82.6088 184.412C82.9426 184.92 83.1094 185.516 83.1094 186.2H82.6803C82.6803 185.627 82.5373 185.116 82.2512 184.666C81.9652 184.216 81.5652 183.861 81.0513 183.601C80.5428 183.342 79.9442 183.212 79.2555 183.212C78.5297 183.212 77.9125 183.323 77.404 183.546C76.8954 183.768 76.5087 184.062 76.2438 184.428C75.9789 184.788 75.8465 185.177 75.8465 185.596C75.8465 185.903 75.8995 186.189 76.0054 186.454C76.1167 186.719 76.3021 186.965 76.5617 187.193C76.8212 187.415 77.1788 187.627 77.6344 187.829C78.09 188.025 78.6621 188.213 79.3508 188.393C79.923 188.541 80.4448 188.708 80.9163 188.893C81.393 189.079 81.8036 189.299 82.1479 189.553C82.4976 189.807 82.7651 190.112 82.9505 190.467C83.1412 190.816 83.2366 191.235 83.2366 191.722C83.2366 192.194 83.1333 192.612 82.9267 192.978C82.7254 193.343 82.4446 193.653 82.0844 193.908C81.7241 194.157 81.3056 194.347 80.8288 194.48C80.3574 194.607 79.8514 194.67 79.3111 194.67C78.8184 194.67 78.3205 194.612 77.8172 194.496C77.3139 194.379 76.853 194.191 76.4345 193.931C76.016 193.667 75.6796 193.314 75.4253 192.875C75.1711 192.435 75.0439 191.892 75.0439 191.246H75.473C75.473 191.823 75.5922 192.305 75.8306 192.692C76.069 193.078 76.3789 193.386 76.7603 193.614C77.147 193.836 77.5629 193.998 78.0079 194.098C78.4582 194.194 78.8926 194.241 79.3111 194.241C79.9892 194.241 80.5905 194.135 81.1149 193.923C81.6394 193.712 82.0499 193.418 82.3466 193.041C82.6486 192.665 82.7995 192.231 82.7995 191.738ZM101.195 182.942V194.511H100.766V182.942H101.195ZM105.407 182.942V183.371H96.5546V182.942H105.407ZM127.609 187.86V189.593C127.609 190.345 127.506 191.034 127.299 191.659C127.098 192.279 126.806 192.814 126.425 193.264C126.049 193.714 125.593 194.061 125.058 194.305C124.523 194.549 123.922 194.67 123.254 194.67C122.592 194.67 121.991 194.549 121.451 194.305C120.915 194.061 120.455 193.714 120.068 193.264C119.686 192.814 119.392 192.279 119.186 191.659C118.984 191.034 118.884 190.345 118.884 189.593V187.86C118.884 187.103 118.984 186.414 119.186 185.794C119.392 185.175 119.686 184.639 120.068 184.189C120.449 183.739 120.908 183.392 121.443 183.148C121.978 182.905 122.576 182.783 123.238 182.783C123.906 182.783 124.507 182.905 125.042 183.148C125.577 183.392 126.036 183.739 126.417 184.189C126.804 184.639 127.098 185.175 127.299 185.794C127.506 186.414 127.609 187.103 127.609 187.86ZM127.18 189.593V187.845C127.18 187.166 127.092 186.547 126.918 185.985C126.743 185.418 126.486 184.928 126.147 184.515C125.808 184.102 125.395 183.781 124.907 183.553C124.42 183.326 123.864 183.212 123.238 183.212C122.619 183.212 122.065 183.326 121.578 183.553C121.096 183.781 120.685 184.102 120.346 184.515C120.012 184.928 119.758 185.418 119.583 185.985C119.408 186.547 119.321 187.166 119.321 187.845V189.593C119.321 190.276 119.408 190.901 119.583 191.468C119.763 192.035 120.02 192.525 120.354 192.938C120.693 193.351 121.106 193.672 121.594 193.9C122.081 194.127 122.635 194.241 123.254 194.241C123.879 194.241 124.433 194.127 124.915 193.9C125.402 193.672 125.813 193.351 126.147 192.938C126.486 192.525 126.743 192.035 126.918 191.468C127.092 190.901 127.18 190.276 127.18 189.593ZM142.421 182.942H146.108C146.844 182.942 147.499 183.071 148.071 183.331C148.643 183.585 149.09 183.961 149.414 184.459C149.742 184.952 149.906 185.559 149.906 186.279C149.906 186.841 149.784 187.349 149.541 187.805C149.297 188.255 148.971 188.626 148.563 188.917C148.155 189.209 147.7 189.391 147.197 189.466L146.95 189.561H142.524L142.508 189.132H146.497C147.16 189.132 147.71 188.994 148.15 188.719C148.59 188.443 148.921 188.088 149.143 187.654C149.366 187.214 149.477 186.756 149.477 186.279C149.477 185.67 149.339 185.151 149.064 184.722C148.789 184.287 148.397 183.953 147.888 183.72C147.385 183.487 146.791 183.371 146.108 183.371H142.85V194.511H142.421V182.942ZM149.938 194.511L146.768 189.41L147.268 189.394L150.391 194.4V194.511H149.938ZM172.355 194.082V194.511H165.465V194.082H172.355ZM165.743 182.942V194.511H165.314V182.942H165.743ZM171.544 188.345V188.774H165.465V188.345H171.544ZM172.355 182.942V183.371H165.465V182.942H172.355Z"/>
</mask>
<path d="M82.7995 191.738C82.7995 191.373 82.736 191.047 82.6088 190.761C82.4817 190.475 82.2777 190.218 81.997 189.99C81.7162 189.762 81.348 189.553 80.8924 189.362C80.4421 189.172 79.8885 188.986 79.2316 188.806C78.6436 188.647 78.1138 188.478 77.6424 188.297C77.1709 188.112 76.7683 187.9 76.4345 187.662C76.1061 187.423 75.8544 187.14 75.6796 186.811C75.5048 186.478 75.4174 186.078 75.4174 185.612C75.4174 185.172 75.5127 184.777 75.7035 184.428C75.8995 184.078 76.1696 183.781 76.514 183.538C76.8636 183.294 77.2715 183.108 77.7377 182.981C78.2039 182.849 78.7098 182.783 79.2555 182.783C80.0077 182.783 80.6726 182.926 81.25 183.212C81.8274 183.498 82.2804 183.898 82.6088 184.412C82.9426 184.92 83.1094 185.516 83.1094 186.2H82.6803C82.6803 185.627 82.5373 185.116 82.2512 184.666C81.9652 184.216 81.5652 183.861 81.0513 183.601C80.5428 183.342 79.9442 183.212 79.2555 183.212C78.5297 183.212 77.9125 183.323 77.404 183.546C76.8954 183.768 76.5087 184.062 76.2438 184.428C75.9789 184.788 75.8465 185.177 75.8465 185.596C75.8465 185.903 75.8995 186.189 76.0054 186.454C76.1167 186.719 76.3021 186.965 76.5617 187.193C76.8212 187.415 77.1788 187.627 77.6344 187.829C78.09 188.025 78.6621 188.213 79.3508 188.393C79.923 188.541 80.4448 188.708 80.9163 188.893C81.393 189.079 81.8036 189.299 82.1479 189.553C82.4976 189.807 82.7651 190.112 82.9505 190.467C83.1412 190.816 83.2366 191.235 83.2366 191.722C83.2366 192.194 83.1333 192.612 82.9267 192.978C82.7254 193.343 82.4446 193.653 82.0844 193.908C81.7241 194.157 81.3056 194.347 80.8288 194.48C80.3574 194.607 79.8514 194.67 79.3111 194.67C78.8184 194.67 78.3205 194.612 77.8172 194.496C77.3139 194.379 76.853 194.191 76.4345 193.931C76.016 193.667 75.6796 193.314 75.4253 192.875C75.1711 192.435 75.0439 191.892 75.0439 191.246H75.473C75.473 191.823 75.5922 192.305 75.8306 192.692C76.069 193.078 76.3789 193.386 76.7603 193.614C77.147 193.836 77.5629 193.998 78.0079 194.098C78.4582 194.194 78.8926 194.241 79.3111 194.241C79.9892 194.241 80.5905 194.135 81.1149 193.923C81.6394 193.712 82.0499 193.418 82.3466 193.041C82.6486 192.665 82.7995 192.231 82.7995 191.738ZM101.195 182.942V194.511H100.766V182.942H101.195ZM105.407 182.942V183.371H96.5546V182.942H105.407ZM127.609 187.86V189.593C127.609 190.345 127.506 191.034 127.299 191.659C127.098 192.279 126.806 192.814 126.425 193.264C126.049 193.714 125.593 194.061 125.058 194.305C124.523 194.549 123.922 194.67 123.254 194.67C122.592 194.67 121.991 194.549 121.451 194.305C120.915 194.061 120.455 193.714 120.068 193.264C119.686 192.814 119.392 192.279 119.186 191.659C118.984 191.034 118.884 190.345 118.884 189.593V187.86C118.884 187.103 118.984 186.414 119.186 185.794C119.392 185.175 119.686 184.639 120.068 184.189C120.449 183.739 120.908 183.392 121.443 183.148C121.978 182.905 122.576 182.783 123.238 182.783C123.906 182.783 124.507 182.905 125.042 183.148C125.577 183.392 126.036 183.739 126.417 184.189C126.804 184.639 127.098 185.175 127.299 185.794C127.506 186.414 127.609 187.103 127.609 187.86ZM127.18 189.593V187.845C127.18 187.166 127.092 186.547 126.918 185.985C126.743 185.418 126.486 184.928 126.147 184.515C125.808 184.102 125.395 183.781 124.907 183.553C124.42 183.326 123.864 183.212 123.238 183.212C122.619 183.212 122.065 183.326 121.578 183.553C121.096 183.781 120.685 184.102 120.346 184.515C120.012 184.928 119.758 185.418 119.583 185.985C119.408 186.547 119.321 187.166 119.321 187.845V189.593C119.321 190.276 119.408 190.901 119.583 191.468C119.763 192.035 120.02 192.525 120.354 192.938C120.693 193.351 121.106 193.672 121.594 193.9C122.081 194.127 122.635 194.241 123.254 194.241C123.879 194.241 124.433 194.127 124.915 193.9C125.402 193.672 125.813 193.351 126.147 192.938C126.486 192.525 126.743 192.035 126.918 191.468C127.092 190.901 127.18 190.276 127.18 189.593ZM142.421 182.942H146.108C146.844 182.942 147.499 183.071 148.071 183.331C148.643 183.585 149.09 183.961 149.414 184.459C149.742 184.952 149.906 185.559 149.906 186.279C149.906 186.841 149.784 187.349 149.541 187.805C149.297 188.255 148.971 188.626 148.563 188.917C148.155 189.209 147.7 189.391 147.197 189.466L146.95 189.561H142.524L142.508 189.132H146.497C147.16 189.132 147.71 188.994 148.15 188.719C148.59 188.443 148.921 188.088 149.143 187.654C149.366 187.214 149.477 186.756 149.477 186.279C149.477 185.67 149.339 185.151 149.064 184.722C148.789 184.287 148.397 183.953 147.888 183.72C147.385 183.487 146.791 183.371 146.108 183.371H142.85V194.511H142.421V182.942ZM149.938 194.511L146.768 189.41L147.268 189.394L150.391 194.4V194.511H149.938ZM172.355 194.082V194.511H165.465V194.082H172.355ZM165.743 182.942V194.511H165.314V182.942H165.743ZM171.544 188.345V188.774H165.465V188.345H171.544ZM172.355 182.942V183.371H165.465V182.942H172.355Z" fill="url(#paint20_linear_2403_2323)"/>
<path d="M80.8924 189.362L80.5751 190.112L80.5782 190.113L80.8924 189.362ZM79.2316 188.806L79.4468 188.021L79.4439 188.02L79.2316 188.806ZM77.6424 188.297L77.3446 189.055L77.352 189.058L77.6424 188.297ZM76.4345 187.662L75.9565 188.32L75.9616 188.324L76.4345 187.662ZM75.6796 186.811L74.9588 187.189L74.9613 187.194L75.6796 186.811ZM75.7035 184.428L74.9936 184.03L74.9891 184.038L75.7035 184.428ZM76.514 183.538L76.0487 182.87L76.0439 182.873L76.514 183.538ZM77.7377 182.981L77.9518 183.766L77.9601 183.764L77.7377 182.981ZM82.6088 184.412L81.9232 184.85L81.9285 184.858L82.6088 184.412ZM83.1094 186.2V187.013H83.9231V186.2H83.1094ZM82.6803 186.2H81.8666V187.013H82.6803V186.2ZM81.0513 183.601L80.6814 184.326L80.6845 184.327L81.0513 183.601ZM76.2438 184.428L76.8994 184.91L76.9027 184.905L76.2438 184.428ZM76.0054 186.454L75.2498 186.756L75.2552 186.769L76.0054 186.454ZM76.5617 187.193L76.0249 187.805L76.0321 187.811L76.5617 187.193ZM77.6344 187.829L77.3055 188.573L77.3128 188.576L77.6344 187.829ZM79.3508 188.393L79.1449 189.18L79.1466 189.18L79.3508 188.393ZM80.9163 188.893L80.6185 189.651L80.6213 189.652L80.9163 188.893ZM82.1479 189.553L81.6645 190.208L81.6693 190.211L82.1479 189.553ZM82.9505 190.467L82.2293 190.844L82.2327 190.85L82.2362 190.856L82.9505 190.467ZM82.9267 192.978L82.2183 192.577L82.2139 192.585L82.9267 192.978ZM82.0844 193.908L82.547 194.577L82.5536 194.572L82.0844 193.908ZM80.8288 194.48L81.0407 195.265L81.0466 195.264L80.8288 194.48ZM76.4345 193.931L75.9993 194.619L76.0056 194.623L76.4345 193.931ZM75.0439 191.246V190.432H74.2302V191.246H75.0439ZM75.473 191.246H76.2867V190.432H75.473V191.246ZM75.8306 192.692L75.1379 193.119L75.8306 192.692ZM76.7603 193.614L76.343 194.312L76.3545 194.319L76.7603 193.614ZM78.0079 194.098L77.8284 194.892L77.8393 194.894L78.0079 194.098ZM82.3466 193.041L81.712 192.532L81.7077 192.537L82.3466 193.041ZM82.7995 191.738H83.6132C83.6132 191.278 83.5329 190.836 83.3524 190.43L82.6088 190.761L81.8653 191.091C81.939 191.257 81.9858 191.468 81.9858 191.738H82.7995ZM82.6088 190.761L83.3524 190.43C83.1656 190.01 82.8746 189.654 82.5096 189.358L81.997 189.99L81.4843 190.622C81.6809 190.781 81.7978 190.939 81.8653 191.091L82.6088 190.761ZM81.997 189.99L82.5096 189.358C82.1512 189.067 81.7095 188.822 81.2066 188.612L80.8924 189.362L80.5782 190.113C80.9865 190.284 81.2811 190.457 81.4843 190.622L81.997 189.99ZM80.8924 189.362L81.2098 188.613C80.7162 188.404 80.1261 188.208 79.4468 188.021L79.2316 188.806L79.0165 189.591C79.651 189.765 80.1681 189.939 80.5751 190.112L80.8924 189.362ZM79.2316 188.806L79.4439 188.02C78.8771 187.867 78.3741 187.706 77.9328 187.537L77.6424 188.297L77.352 189.058C77.8536 189.249 78.4101 189.427 79.0193 189.592L79.2316 188.806ZM77.6424 188.297L77.9402 187.54C77.5168 187.374 77.176 187.191 76.9075 187L76.4345 187.662L75.9616 188.324C76.3605 188.609 76.8249 188.85 77.3446 189.055L77.6424 188.297ZM76.4345 187.662L76.9125 187.003C76.6749 186.831 76.5095 186.639 76.3979 186.429L75.6796 186.811L74.9613 187.194C75.1994 187.641 75.5373 188.016 75.9566 188.32L76.4345 187.662ZM75.6796 186.811L76.4004 186.434C76.2994 186.241 76.2311 185.977 76.2311 185.612H75.4174H74.6037C74.6037 186.179 74.7102 186.714 74.9588 187.189L75.6796 186.811ZM75.4174 185.612H76.2311C76.2311 185.294 76.2989 185.035 76.4178 184.817L75.7035 184.428L74.9891 184.038C74.7266 184.519 74.6037 185.05 74.6037 185.612H75.4174ZM75.7035 184.428L76.4132 184.825C76.547 184.587 76.7331 184.379 76.984 184.202L76.514 183.538L76.0439 182.873C75.6062 183.183 75.2519 183.569 74.9937 184.03L75.7035 184.428ZM76.514 183.538L76.9793 184.205C77.243 184.021 77.5636 183.872 77.9518 183.766L77.7377 182.981L77.5236 182.196C76.9795 182.345 76.4842 182.566 76.0487 182.87L76.514 183.538ZM77.7377 182.981L77.9601 183.764C78.3455 183.655 78.7757 183.596 79.2555 183.596V182.783V181.969C78.6439 181.969 78.0623 182.043 77.5154 182.199L77.7377 182.981ZM79.2555 182.783V183.596C79.9033 183.596 80.441 183.719 80.8888 183.941L81.25 183.212L81.6112 182.483C80.9041 182.132 80.1121 181.969 79.2555 181.969V182.783ZM81.25 183.212L80.8888 183.941C81.3415 184.165 81.679 184.468 81.9232 184.85L82.6088 184.412L83.2944 183.973C82.8817 183.328 82.3134 182.831 81.6112 182.483L81.25 183.212ZM82.6088 184.412L81.9285 184.858C82.1648 185.218 82.2957 185.655 82.2957 186.2H83.1094H83.9231C83.9231 185.378 83.7204 184.622 83.2891 183.965L82.6088 184.412ZM83.1094 186.2V185.386H82.6803V186.2V187.013H83.1094V186.2ZM82.6803 186.2H83.494C83.494 185.485 83.3131 184.82 82.9381 184.23L82.2512 184.666L81.5644 185.102C81.7616 185.413 81.8666 185.77 81.8666 186.2H82.6803ZM82.2512 184.666L82.9381 184.23C82.5672 183.646 82.0522 183.195 81.4182 182.875L81.0513 183.601L80.6845 184.327C81.0782 184.526 81.3631 184.785 81.5644 185.102L82.2512 184.666ZM81.0513 183.601L81.4213 182.876C80.7769 182.547 80.0465 182.398 79.2555 182.398V183.212V184.025C79.8418 184.025 80.3087 184.136 80.6814 184.326L81.0513 183.601ZM79.2555 183.212V182.398C78.4504 182.398 77.7156 182.521 77.0778 182.8L77.404 183.546L77.7301 184.291C78.1094 184.125 78.609 184.025 79.2555 184.025V183.212ZM77.404 183.546L77.0778 182.8C76.4668 183.067 75.9524 183.443 75.5849 183.95L76.2438 184.428L76.9027 184.905C77.065 184.681 77.324 184.469 77.7301 184.291L77.404 183.546ZM76.2438 184.428L75.5882 183.946C75.2281 184.435 75.0328 184.992 75.0328 185.596H75.8465H76.6602C76.6602 185.363 76.7298 185.14 76.8994 184.91L76.2438 184.428ZM75.8465 185.596H75.0328C75.0328 185.998 75.1026 186.388 75.2499 186.756L76.0054 186.454L76.7609 186.152C76.6963 185.99 76.6602 185.807 76.6602 185.596H75.8465ZM76.0054 186.454L75.2552 186.769C75.4229 187.168 75.6912 187.512 76.025 187.805L76.5617 187.193L77.0984 186.581C76.913 186.419 76.8104 186.269 76.7556 186.139L76.0054 186.454ZM76.5617 187.193L76.0321 187.811C76.3727 188.103 76.8073 188.353 77.3055 188.573L77.6344 187.829L77.9633 187.084C77.5504 186.902 77.2698 186.728 77.0912 186.575L76.5617 187.193ZM77.6344 187.829L77.3128 188.576C77.8182 188.793 78.4322 188.994 79.1449 189.18L79.3508 188.393L79.5567 187.606C78.8921 187.432 78.3618 187.256 77.956 187.081L77.6344 187.829ZM79.3508 188.393L79.1466 189.18C79.6921 189.322 80.1821 189.479 80.6185 189.651L80.9163 188.893L81.2141 188.136C80.7075 187.937 80.1539 187.76 79.555 187.605L79.3508 188.393ZM80.9163 188.893L80.6213 189.652C81.0436 189.816 81.3881 190.003 81.6646 190.208L82.1479 189.553L82.6313 188.898C82.2191 188.594 81.7425 188.342 81.2112 188.135L80.9163 188.893ZM82.1479 189.553L81.6693 190.211C81.9257 190.398 82.1065 190.609 82.2293 190.844L82.9505 190.467L83.6717 190.09C83.4237 189.615 83.0694 189.217 82.6265 188.895L82.1479 189.553ZM82.9505 190.467L82.2362 190.856C82.3486 191.063 82.4229 191.341 82.4229 191.722H83.2366H84.0503C84.0503 191.129 83.9338 190.57 83.6649 190.077L82.9505 190.467ZM83.2366 191.722H82.4229C82.4229 192.071 82.3477 192.349 82.2183 192.577L82.9267 192.978L83.6351 193.378C83.9189 192.876 84.0503 192.317 84.0503 191.722H83.2366ZM82.9267 192.978L82.2139 192.585C82.0755 192.837 81.8804 193.055 81.6151 193.243L82.0844 193.908L82.5536 194.572C83.0088 194.251 83.3753 193.85 83.6394 193.37L82.9267 192.978ZM82.0844 193.908L81.6217 193.238C81.3452 193.429 81.0116 193.584 80.6111 193.696L80.8288 194.48L81.0466 195.264C81.5996 195.11 82.1031 194.884 82.547 194.577L82.0844 193.908ZM80.8288 194.48L80.617 193.694C80.2215 193.801 79.7874 193.857 79.3111 193.857V194.67V195.484C79.9155 195.484 80.4932 195.413 81.0407 195.265L80.8288 194.48ZM79.3111 194.67V193.857C78.8831 193.857 78.4467 193.806 78.0008 193.703L77.8172 194.496L77.6336 195.288C78.1942 195.418 78.7537 195.484 79.3111 195.484V194.67ZM77.8172 194.496L78.0008 193.703C77.58 193.605 77.2026 193.45 76.8634 193.24L76.4345 193.931L76.0056 194.623C76.5035 194.932 77.0479 195.153 77.6336 195.288L77.8172 194.496ZM76.4345 193.931L76.8697 193.244C76.5651 193.051 76.32 192.796 76.1297 192.467L75.4253 192.875L74.7209 193.282C75.0393 193.832 75.4669 194.282 75.9994 194.619L76.4345 193.931ZM75.4253 192.875L76.1297 192.467C75.9641 192.181 75.8576 191.787 75.8576 191.246H75.0439H74.2302C74.2302 191.997 74.3781 192.689 74.7209 193.282L75.4253 192.875ZM75.0439 191.246V192.059H75.473V191.246V190.432H75.0439V191.246ZM75.473 191.246H74.6593C74.6593 191.933 74.8016 192.573 75.1379 193.119L75.8306 192.692L76.5233 192.265C76.3828 192.037 76.2867 191.713 76.2867 191.246H75.473ZM75.8306 192.692L75.1379 193.119C75.4434 193.614 75.8468 194.016 76.3431 194.312L76.7603 193.614L77.1775 192.915C76.911 192.756 76.6946 192.543 76.5233 192.265L75.8306 192.692ZM76.7603 193.614L76.3545 194.319C76.8134 194.583 77.3058 194.774 77.8284 194.892L78.0079 194.098L78.1874 193.305C77.82 193.222 77.4807 193.089 77.1661 192.908L76.7603 193.614ZM78.0079 194.098L77.8393 194.894C78.3396 195 78.8306 195.055 79.3111 195.055V194.241V193.428C78.9545 193.428 78.5768 193.387 78.1765 193.302L78.0079 194.098ZM79.3111 194.241V195.055C80.0734 195.055 80.7812 194.936 81.4197 194.678L81.1149 193.923L80.8101 193.169C80.3997 193.335 79.905 193.428 79.3111 193.428V194.241ZM81.1149 193.923L81.4197 194.678C82.0516 194.423 82.5865 194.051 82.9855 193.545L82.3466 193.041L81.7077 192.537C81.5134 192.784 81.2271 193 80.8101 193.169L81.1149 193.923ZM82.3466 193.041L82.9811 193.551C83.4017 193.027 83.6132 192.412 83.6132 191.738H82.7995H81.9858C81.9858 192.05 81.8954 192.304 81.7121 192.532L82.3466 193.041ZM101.195 182.942H102.009V182.128H101.195V182.942ZM101.195 194.511V195.325H102.009V194.511H101.195ZM100.766 194.511H99.9525V195.325H100.766V194.511ZM100.766 182.942V182.128H99.9525V182.942H100.766ZM105.407 182.942H106.221V182.128H105.407V182.942ZM105.407 183.371V184.184H106.221V183.371H105.407ZM96.5546 183.371H95.7409V184.184H96.5546V183.371ZM96.5546 182.942V182.128H95.7409V182.942H96.5546ZM101.195 182.942H100.382V194.511H101.195H102.009V182.942H101.195ZM101.195 194.511V193.698H100.766V194.511V195.325H101.195V194.511ZM100.766 194.511H101.58V182.942H100.766H99.9525V194.511H100.766ZM100.766 182.942V183.755H101.195V182.942V182.128H100.766V182.942ZM105.407 182.942H104.593V183.371H105.407H106.221V182.942H105.407ZM105.407 183.371V182.557H96.5546V183.371V184.184H105.407V183.371ZM96.5546 183.371H97.3683V182.942H96.5546H95.7409V183.371H96.5546ZM96.5546 182.942V183.755H105.407V182.942V182.128H96.5546V182.942ZM127.299 191.659L126.526 191.403L126.525 191.407L127.299 191.659ZM126.425 193.264L125.804 192.738L125.8 192.742L126.425 193.264ZM121.451 194.305L121.113 195.045L121.116 195.047L121.451 194.305ZM120.068 193.264L119.447 193.79L119.451 193.794L120.068 193.264ZM119.186 191.659L118.411 191.908L118.414 191.916L119.186 191.659ZM119.186 185.794L118.414 185.537L118.412 185.543L119.186 185.794ZM121.443 183.148L121.105 182.408L121.443 183.148ZM126.417 184.189L125.796 184.715L125.8 184.719L126.417 184.189ZM127.299 185.794L126.525 186.046L126.527 186.052L127.299 185.794ZM126.918 185.985L126.14 186.225L126.141 186.227L126.918 185.985ZM126.147 184.515L125.518 185.031L126.147 184.515ZM121.578 183.553L121.233 182.816L121.23 182.818L121.578 183.553ZM120.346 184.515L119.717 183.999L119.713 184.004L120.346 184.515ZM119.583 185.985L120.36 186.227L120.361 186.225L119.583 185.985ZM119.583 191.468L118.806 191.708L118.808 191.714L119.583 191.468ZM120.354 192.938L119.721 193.449L119.725 193.454L120.354 192.938ZM121.594 193.9L121.249 194.637L121.594 193.9ZM124.915 193.9L124.571 193.162L124.567 193.164L124.915 193.9ZM126.147 192.938L125.518 192.422L125.514 192.427L126.147 192.938ZM127.609 187.86H126.795V189.593H127.609H128.423V187.86H127.609ZM127.609 189.593H126.795C126.795 190.27 126.702 190.871 126.526 191.403L127.299 191.659L128.072 191.914C128.309 191.196 128.423 190.42 128.423 189.593H127.609ZM127.299 191.659L126.525 191.407C126.353 191.937 126.11 192.376 125.804 192.738L126.425 193.264L127.046 193.79C127.502 193.251 127.842 192.62 128.073 191.91L127.299 191.659ZM126.425 193.264L125.8 192.742C125.503 193.099 125.145 193.371 124.721 193.564L125.058 194.305L125.395 195.045C126.041 194.751 126.595 194.33 127.049 193.786L126.425 193.264ZM125.058 194.305L124.721 193.564C124.305 193.754 123.821 193.857 123.254 193.857V194.67V195.484C124.022 195.484 124.741 195.343 125.395 195.045L125.058 194.305ZM123.254 194.67V193.857C122.694 193.857 122.209 193.754 121.785 193.563L121.451 194.305L121.116 195.047C121.773 195.343 122.49 195.484 123.254 195.484V194.67ZM121.451 194.305L121.788 193.564C121.361 193.37 120.996 193.095 120.685 192.734L120.068 193.264L119.451 193.794C119.913 194.333 120.47 194.752 121.113 195.045L121.451 194.305ZM120.068 193.264L120.689 192.738C120.381 192.375 120.135 191.933 119.958 191.401L119.186 191.659L118.414 191.916C118.65 192.624 118.992 193.252 119.447 193.79L120.068 193.264ZM119.186 191.659L119.96 191.409C119.788 190.876 119.698 190.272 119.698 189.593H118.884H118.07C118.07 190.418 118.181 191.192 118.411 191.908L119.186 191.659ZM118.884 189.593H119.698V187.86H118.884H118.07V189.593H118.884ZM118.884 187.86H119.698C119.698 187.175 119.789 186.572 119.96 186.046L119.186 185.794L118.412 185.543C118.18 186.256 118.07 187.031 118.07 187.86H118.884ZM119.186 185.794L119.958 186.052C120.135 185.52 120.381 185.078 120.689 184.715L120.068 184.189L119.447 183.663C118.992 184.201 118.65 184.829 118.414 185.537L119.186 185.794ZM120.068 184.189L120.689 184.715C120.993 184.356 121.354 184.082 121.78 183.889L121.443 183.148L121.105 182.408C120.461 182.701 119.906 183.122 119.447 183.663L120.068 184.189ZM121.443 183.148L121.78 183.889C122.196 183.699 122.678 183.596 123.238 183.596V182.783V181.969C122.475 181.969 121.759 182.11 121.105 182.408L121.443 183.148ZM123.238 182.783V183.596C123.805 183.596 124.289 183.699 124.705 183.889L125.042 183.148L125.38 182.408C124.725 182.11 124.007 181.969 123.238 181.969V182.783ZM125.042 183.148L124.705 183.889C125.13 184.082 125.492 184.356 125.796 184.715L126.417 184.189L127.038 183.663C126.579 183.122 126.024 182.701 125.38 182.408L125.042 183.148ZM126.417 184.189L125.8 184.719C126.11 185.08 126.354 185.518 126.525 186.046L127.299 185.794L128.073 185.543C127.842 184.831 127.498 184.199 127.034 183.659L126.417 184.189ZM127.299 185.794L126.527 186.052C126.702 186.576 126.795 187.177 126.795 187.86H127.609H128.423C128.423 187.029 128.309 186.252 128.071 185.537L127.299 185.794ZM127.18 189.593H127.994V187.845H127.18H126.366V189.593H127.18ZM127.18 187.845H127.994C127.994 187.097 127.897 186.394 127.695 185.743L126.918 185.985L126.141 186.227C126.288 186.699 126.366 187.236 126.366 187.845H127.18ZM126.918 185.985L127.695 185.745C127.493 185.089 127.189 184.502 126.776 183.999L126.147 184.515L125.518 185.031C125.783 185.354 125.993 185.748 126.14 186.225L126.918 185.985ZM126.147 184.515L126.776 183.999C126.359 183.491 125.848 183.095 125.252 182.816L124.907 183.553L124.563 184.291C124.941 184.467 125.256 184.713 125.518 185.031L126.147 184.515ZM124.907 183.553L125.252 182.816C124.64 182.531 123.963 182.398 123.238 182.398V183.212V184.025C123.764 184.025 124.199 184.121 124.563 184.291L124.907 183.553ZM123.238 183.212V182.398C122.518 182.398 121.844 182.531 121.233 182.816L121.578 183.553L121.922 184.291C122.286 184.12 122.72 184.025 123.238 184.025V183.212ZM121.578 183.553L121.23 182.818C120.639 183.097 120.132 183.493 119.717 183.999L120.346 184.515L120.975 185.031C121.238 184.711 121.552 184.465 121.925 184.289L121.578 183.553ZM120.346 184.515L119.713 184.004C119.307 184.506 119.007 185.091 118.806 185.745L119.583 185.985L120.361 186.225C120.509 185.745 120.717 185.35 120.979 185.026L120.346 184.515ZM119.583 185.985L118.806 185.743C118.604 186.394 118.507 187.097 118.507 187.845H119.321H120.135C120.135 187.236 120.213 186.699 120.36 186.227L119.583 185.985ZM119.321 187.845H118.507V189.593H119.321H120.135V187.845H119.321ZM119.321 189.593H118.507C118.507 190.345 118.603 191.053 118.806 191.708L119.583 191.468L120.361 191.228C120.213 190.75 120.135 190.207 120.135 189.593H119.321ZM119.583 191.468L118.808 191.714C119.015 192.366 119.316 192.949 119.721 193.449L120.354 192.938L120.987 192.427C120.724 192.101 120.512 191.704 120.359 191.222L119.583 191.468ZM120.354 192.938L119.725 193.454C120.142 193.962 120.652 194.358 121.249 194.637L121.594 193.9L121.938 193.162C121.56 192.986 121.244 192.741 120.983 192.422L120.354 192.938ZM121.594 193.9L121.249 194.637C121.859 194.922 122.534 195.055 123.254 195.055V194.241V193.428C122.736 193.428 122.302 193.333 121.938 193.162L121.594 193.9ZM123.254 194.241V195.055C123.979 195.055 124.655 194.923 125.263 194.635L124.915 193.9L124.567 193.164C124.211 193.332 123.78 193.428 123.254 193.428V194.241ZM124.915 193.9L125.26 194.637C125.858 194.357 126.367 193.96 126.78 193.449L126.147 192.938L125.514 192.427C125.259 192.743 124.947 192.986 124.571 193.162L124.915 193.9ZM126.147 192.938L126.776 193.454C127.189 192.951 127.493 192.364 127.695 191.708L126.918 191.468L126.14 191.228C125.993 191.705 125.783 192.099 125.518 192.422L126.147 192.938ZM126.918 191.468L127.695 191.708C127.897 191.053 127.994 190.345 127.994 189.593H127.18H126.366C126.366 190.207 126.288 190.75 126.14 191.228L126.918 191.468ZM142.421 182.942V182.128H141.607V182.942H142.421ZM148.071 183.331L147.735 184.072L147.74 184.075L148.071 183.331ZM149.414 184.459L148.731 184.902L148.737 184.911L149.414 184.459ZM149.541 187.805L150.256 188.192L150.258 188.189L149.541 187.805ZM147.197 189.466L147.078 188.661L146.988 188.674L146.903 188.707L147.197 189.466ZM146.95 189.561V190.375H147.102L147.244 190.32L146.95 189.561ZM142.524 189.561L141.711 189.591L141.74 190.375H142.524V189.561ZM142.508 189.132V188.318H141.664L141.695 189.162L142.508 189.132ZM149.143 187.654L149.868 188.025L149.87 188.021L149.143 187.654ZM149.064 184.722L148.377 185.157L148.379 185.161L149.064 184.722ZM147.888 183.72L147.546 184.459L147.549 184.46L147.888 183.72ZM142.85 183.371V182.557H142.036V183.371H142.85ZM142.85 194.511V195.325H143.664V194.511H142.85ZM142.421 194.511H141.607V195.325H142.421V194.511ZM149.938 194.511L149.247 194.941L149.486 195.325H149.938V194.511ZM146.768 189.41L146.742 188.597L145.332 188.641L146.076 189.839L146.768 189.41ZM147.268 189.394L147.959 188.963L147.711 188.566L147.242 188.581L147.268 189.394ZM150.391 194.4H151.205V194.167L151.081 193.97L150.391 194.4ZM150.391 194.511V195.325H151.205V194.511H150.391ZM142.421 182.942V183.755H146.108V182.942V182.128H142.421V182.942ZM146.108 182.942V183.755C146.748 183.755 147.285 183.868 147.735 184.072L148.071 183.331L148.407 182.59C147.713 182.275 146.941 182.128 146.108 182.128V182.942ZM148.071 183.331L147.74 184.075C148.177 184.269 148.498 184.544 148.731 184.902L149.414 184.459L150.096 184.016C149.682 183.379 149.109 182.902 148.401 182.587L148.071 183.331ZM149.414 184.459L148.737 184.911C148.958 185.243 149.093 185.684 149.093 186.279H149.906H150.72C150.72 185.433 150.526 184.661 150.091 184.008L149.414 184.459ZM149.906 186.279H149.093C149.093 186.719 148.998 187.094 148.823 187.421L149.541 187.805L150.258 188.189C150.571 187.605 150.72 186.963 150.72 186.279H149.906ZM149.541 187.805L148.825 187.417C148.639 187.761 148.395 188.037 148.09 188.255L148.563 188.917L149.036 189.579C149.547 189.214 149.955 188.749 150.256 188.192L149.541 187.805ZM148.563 188.917L148.09 188.255C147.789 188.47 147.455 188.605 147.078 188.661L147.197 189.466L147.315 190.271C147.944 190.178 148.522 189.947 149.036 189.579L148.563 188.917ZM147.197 189.466L146.903 188.707L146.657 188.802L146.95 189.561L147.244 190.32L147.49 190.224L147.197 189.466ZM146.95 189.561V188.747H142.524V189.561V190.375H146.95V189.561ZM142.524 189.561L143.337 189.531L143.321 189.102L142.508 189.132L141.695 189.162L141.711 189.591L142.524 189.561ZM142.508 189.132V189.946H146.497V189.132V188.318H142.508V189.132ZM146.497 189.132V189.946C147.271 189.946 147.982 189.784 148.582 189.408L148.15 188.719L147.718 188.029C147.439 188.204 147.048 188.318 146.497 188.318V189.132ZM148.15 188.719L148.582 189.408C149.138 189.06 149.574 188.598 149.868 188.025L149.143 187.654L148.419 187.283C148.268 187.578 148.042 187.826 147.718 188.029L148.15 188.719ZM149.143 187.654L149.87 188.021C150.148 187.472 150.291 186.888 150.291 186.279H149.477H148.664C148.664 186.624 148.584 186.957 148.417 187.286L149.143 187.654ZM149.477 186.279H150.291C150.291 185.545 150.124 184.866 149.749 184.282L149.064 184.722L148.379 185.161C148.555 185.435 148.664 185.795 148.664 186.279H149.477ZM149.064 184.722L149.751 184.286C149.384 183.707 148.865 183.273 148.227 182.981L147.888 183.72L147.549 184.46C147.928 184.634 148.193 184.867 148.377 185.157L149.064 184.722ZM147.888 183.72L148.23 182.982C147.598 182.689 146.883 182.557 146.108 182.557V183.371V184.184C146.7 184.184 147.172 184.285 147.546 184.459L147.888 183.72ZM146.108 183.371V182.557H142.85V183.371V184.184H146.108V183.371ZM142.85 183.371H142.036V194.511H142.85H143.664V183.371H142.85ZM142.85 194.511V193.698H142.421V194.511V195.325H142.85V194.511ZM142.421 194.511H143.235V182.942H142.421H141.607V194.511H142.421ZM149.938 194.511L150.629 194.082L147.459 188.98L146.768 189.41L146.076 189.839L149.247 194.941L149.938 194.511ZM146.768 189.41L146.793 190.223L147.294 190.207L147.268 189.394L147.242 188.581L146.742 188.597L146.768 189.41ZM147.268 189.394L146.578 189.825L149.701 194.831L150.391 194.4L151.081 193.97L147.959 188.963L147.268 189.394ZM150.391 194.4H149.577V194.511H150.391H151.205V194.4H150.391ZM150.391 194.511V193.698H149.938V194.511V195.325H150.391V194.511ZM172.355 194.082H173.168V193.269H172.355V194.082ZM172.355 194.511V195.325H173.168V194.511H172.355ZM165.465 194.511H164.652V195.325H165.465V194.511ZM165.465 194.082V193.269H164.652V194.082H165.465ZM165.743 182.942H166.557V182.128H165.743V182.942ZM165.743 194.511V195.325H166.557V194.511H165.743ZM165.314 194.511H164.501V195.325H165.314V194.511ZM165.314 182.942V182.128H164.501V182.942H165.314ZM171.544 188.345H172.358V187.531H171.544V188.345ZM171.544 188.774V189.588H172.358V188.774H171.544ZM165.465 188.774H164.652V189.588H165.465V188.774ZM165.465 188.345V187.531H164.652V188.345H165.465ZM172.355 182.942H173.168V182.128H172.355V182.942ZM172.355 183.371V184.184H173.168V183.371H172.355ZM165.465 183.371H164.652V184.184H165.465V183.371ZM165.465 182.942V182.128H164.652V182.942H165.465ZM172.355 194.082H171.541V194.511H172.355H173.168V194.082H172.355ZM172.355 194.511V193.698H165.465V194.511V195.325H172.355V194.511ZM165.465 194.511H166.279V194.082H165.465H164.652V194.511H165.465ZM165.465 194.082V194.896H172.355V194.082V193.269H165.465V194.082ZM165.743 182.942H164.93V194.511H165.743H166.557V182.942H165.743ZM165.743 194.511V193.698H165.314V194.511V195.325H165.743V194.511ZM165.314 194.511H166.128V182.942H165.314H164.501V194.511H165.314ZM165.314 182.942V183.755H165.743V182.942V182.128H165.314V182.942ZM171.544 188.345H170.73V188.774H171.544H172.358V188.345H171.544ZM171.544 188.774V187.961H165.465V188.774V189.588H171.544V188.774ZM165.465 188.774H166.279V188.345H165.465H164.652V188.774H165.465ZM165.465 188.345V189.159H171.544V188.345V187.531H165.465V188.345ZM172.355 182.942H171.541V183.371H172.355H173.168V182.942H172.355ZM172.355 183.371V182.557H165.465V183.371V184.184H172.355V183.371ZM165.465 183.371H166.279V182.942H165.465H164.652V183.371H165.465ZM165.465 182.942V183.755H172.355V182.942V182.128H165.465V182.942Z" fill="url(#paint21_linear_2403_2323)" mask="url(#path-5-outside-1_2403_2323)"/>
<defs>
<linearGradient id="paint0_linear_2403_2323" x1="159.032" y1="104.511" x2="71.6373" y2="87.9456" gradientUnits="userSpaceOnUse">
<stop stop-color="#5274F9"/>
<stop offset="0.25" stop-color="#7060E8"/>
<stop offset="0.5" stop-color="#7B42D2"/>
<stop offset="0.75" stop-color="#AB45E2"/>
<stop offset="1" stop-color="#D54EE5"/>
</linearGradient>
<linearGradient id="paint1_linear_2403_2323" x1="159.032" y1="104.511" x2="71.6373" y2="87.9456" gradientUnits="userSpaceOnUse">
<stop stop-color="#5274F9"/>
<stop offset="0.25" stop-color="#7060E8"/>
<stop offset="0.5" stop-color="#7B42D2"/>
<stop offset="0.75" stop-color="#AB45E2"/>
<stop offset="1" stop-color="#D54EE5"/>
</linearGradient>
<linearGradient id="paint2_linear_2403_2323" x1="159.032" y1="104.511" x2="71.6373" y2="87.9456" gradientUnits="userSpaceOnUse">
<stop stop-color="#5274F9"/>
<stop offset="0.25" stop-color="#7060E8"/>
<stop offset="0.5" stop-color="#7B42D2"/>
<stop offset="0.75" stop-color="#AB45E2"/>
<stop offset="1" stop-color="#D54EE5"/>
</linearGradient>
<linearGradient id="paint3_linear_2403_2323" x1="159.032" y1="104.511" x2="71.6373" y2="87.9456" gradientUnits="userSpaceOnUse">
<stop stop-color="#5274F9"/>
<stop offset="0.25" stop-color="#7060E8"/>
<stop offset="0.5" stop-color="#7B42D2"/>
<stop offset="0.75" stop-color="#AB45E2"/>
<stop offset="1" stop-color="#D54EE5"/>
</linearGradient>
<linearGradient id="paint4_linear_2403_2323" x1="159.032" y1="104.511" x2="71.6373" y2="87.9456" gradientUnits="userSpaceOnUse">
<stop stop-color="#5274F9"/>
<stop offset="0.25" stop-color="#7060E8"/>
<stop offset="0.5" stop-color="#7B42D2"/>
<stop offset="0.75" stop-color="#AB45E2"/>
<stop offset="1" stop-color="#D54EE5"/>
</linearGradient>
<linearGradient id="paint5_linear_2403_2323" x1="159.032" y1="104.511" x2="71.6373" y2="87.9456" gradientUnits="userSpaceOnUse">
<stop stop-color="#5274F9"/>
<stop offset="0.25" stop-color="#7060E8"/>
<stop offset="0.5" stop-color="#7B42D2"/>
<stop offset="0.75" stop-color="#AB45E2"/>
<stop offset="1" stop-color="#D54EE5"/>
</linearGradient>
<linearGradient id="paint6_linear_2403_2323" x1="159.032" y1="104.511" x2="71.6373" y2="87.9456" gradientUnits="userSpaceOnUse">
<stop stop-color="#5274F9"/>
<stop offset="0.25" stop-color="#7060E8"/>
<stop offset="0.5" stop-color="#7B42D2"/>
<stop offset="0.75" stop-color="#AB45E2"/>
<stop offset="1" stop-color="#D54EE5"/>
</linearGradient>
<linearGradient id="paint7_linear_2403_2323" x1="159.032" y1="104.511" x2="71.6373" y2="87.9456" gradientUnits="userSpaceOnUse">
<stop stop-color="#5274F9"/>
<stop offset="0.25" stop-color="#7060E8"/>
<stop offset="0.5" stop-color="#7B42D2"/>
<stop offset="0.75" stop-color="#AB45E2"/>
<stop offset="1" stop-color="#D54EE5"/>
</linearGradient>
<linearGradient id="paint8_linear_2403_2323" x1="246.85" y1="158.511" x2="196.407" y2="42.9577" gradientUnits="userSpaceOnUse">
<stop stop-color="#5274F9"/>
<stop offset="0.25" stop-color="#7060E8"/>
<stop offset="0.5" stop-color="#7B42D2"/>
<stop offset="0.75" stop-color="#AB45E2"/>
<stop offset="1" stop-color="#D54EE5"/>
</linearGradient>
<linearGradient id="paint9_linear_2403_2323" x1="246.85" y1="158.511" x2="196.407" y2="42.9577" gradientUnits="userSpaceOnUse">
<stop stop-color="#5274F9"/>
<stop offset="0.25" stop-color="#7060E8"/>
<stop offset="0.5" stop-color="#7B42D2"/>
<stop offset="0.75" stop-color="#AB45E2"/>
<stop offset="1" stop-color="#D54EE5"/>
</linearGradient>
<linearGradient id="paint10_linear_2403_2323" x1="246.85" y1="158.511" x2="196.407" y2="42.9577" gradientUnits="userSpaceOnUse">
<stop stop-color="#5274F9"/>
<stop offset="0.25" stop-color="#7060E8"/>
<stop offset="0.5" stop-color="#7B42D2"/>
<stop offset="0.75" stop-color="#AB45E2"/>
<stop offset="1" stop-color="#D54EE5"/>
</linearGradient>
<linearGradient id="paint11_linear_2403_2323" x1="246.85" y1="158.511" x2="196.407" y2="42.9577" gradientUnits="userSpaceOnUse">
<stop stop-color="#5274F9"/>
<stop offset="0.25" stop-color="#7060E8"/>
<stop offset="0.5" stop-color="#7B42D2"/>
<stop offset="0.75" stop-color="#AB45E2"/>
<stop offset="1" stop-color="#D54EE5"/>
</linearGradient>
<linearGradient id="paint12_linear_2403_2323" x1="246.85" y1="158.511" x2="196.407" y2="42.9577" gradientUnits="userSpaceOnUse">
<stop stop-color="#5274F9"/>
<stop offset="0.25" stop-color="#7060E8"/>
<stop offset="0.5" stop-color="#7B42D2"/>
<stop offset="0.75" stop-color="#AB45E2"/>
<stop offset="1" stop-color="#D54EE5"/>
</linearGradient>
<linearGradient id="paint13_linear_2403_2323" x1="246.85" y1="158.511" x2="196.407" y2="42.9577" gradientUnits="userSpaceOnUse">
<stop stop-color="#5274F9"/>
<stop offset="0.25" stop-color="#7060E8"/>
<stop offset="0.5" stop-color="#7B42D2"/>
<stop offset="0.75" stop-color="#AB45E2"/>
<stop offset="1" stop-color="#D54EE5"/>
</linearGradient>
<linearGradient id="paint14_linear_2403_2323" x1="246.85" y1="158.511" x2="196.407" y2="42.9577" gradientUnits="userSpaceOnUse">
<stop stop-color="#5274F9"/>
<stop offset="0.25" stop-color="#7060E8"/>
<stop offset="0.5" stop-color="#7B42D2"/>
<stop offset="0.75" stop-color="#AB45E2"/>
<stop offset="1" stop-color="#D54EE5"/>
</linearGradient>
<linearGradient id="paint15_linear_2403_2323" x1="246.85" y1="158.511" x2="196.407" y2="42.9577" gradientUnits="userSpaceOnUse">
<stop stop-color="#5274F9"/>
<stop offset="0.25" stop-color="#7060E8"/>
<stop offset="0.5" stop-color="#7B42D2"/>
<stop offset="0.75" stop-color="#AB45E2"/>
<stop offset="1" stop-color="#D54EE5"/>
</linearGradient>
<linearGradient id="paint16_linear_2403_2323" x1="246.85" y1="158.511" x2="196.407" y2="42.9577" gradientUnits="userSpaceOnUse">
<stop stop-color="#5274F9"/>
<stop offset="0.25" stop-color="#7060E8"/>
<stop offset="0.5" stop-color="#7B42D2"/>
<stop offset="0.75" stop-color="#AB45E2"/>
<stop offset="1" stop-color="#D54EE5"/>
</linearGradient>
<linearGradient id="paint17_linear_2403_2323" x1="246.85" y1="158.511" x2="196.407" y2="42.9577" gradientUnits="userSpaceOnUse">
<stop stop-color="#5274F9"/>
<stop offset="0.25" stop-color="#7060E8"/>
<stop offset="0.5" stop-color="#7B42D2"/>
<stop offset="0.75" stop-color="#AB45E2"/>
<stop offset="1" stop-color="#D54EE5"/>
</linearGradient>
<linearGradient id="paint18_linear_2403_2323" x1="246.85" y1="158.511" x2="196.407" y2="42.9577" gradientUnits="userSpaceOnUse">
<stop stop-color="#5274F9"/>
<stop offset="0.25" stop-color="#7060E8"/>
<stop offset="0.5" stop-color="#7B42D2"/>
<stop offset="0.75" stop-color="#AB45E2"/>
<stop offset="1" stop-color="#D54EE5"/>
</linearGradient>
<linearGradient id="paint19_linear_2403_2323" x1="246.85" y1="158.511" x2="196.407" y2="42.9577" gradientUnits="userSpaceOnUse">
<stop stop-color="#5274F9"/>
<stop offset="0.25" stop-color="#7060E8"/>
<stop offset="0.5" stop-color="#7B42D2"/>
<stop offset="0.75" stop-color="#AB45E2"/>
<stop offset="1" stop-color="#D54EE5"/>
</linearGradient>
<linearGradient id="paint20_linear_2403_2323" x1="173.136" y1="199.511" x2="126.733" y2="138.505" gradientUnits="userSpaceOnUse">
<stop stop-color="#5274F9"/>
<stop offset="0.25" stop-color="#7060E8"/>
<stop offset="0.5" stop-color="#7B42D2"/>
<stop offset="0.75" stop-color="#AB45E2"/>
<stop offset="1" stop-color="#D54EE5"/>
</linearGradient>
<linearGradient id="paint21_linear_2403_2323" x1="173.136" y1="199.511" x2="126.733" y2="138.505" gradientUnits="userSpaceOnUse">
<stop stop-color="#5274F9"/>
<stop offset="0.25" stop-color="#7060E8"/>
<stop offset="0.5" stop-color="#7B42D2"/>
<stop offset="0.75" stop-color="#AB45E2"/>
<stop offset="1" stop-color="#D54EE5"/>
</linearGradient>
</defs>
</svg>
