<svg width="44" height="44" viewBox="0 0 44 44" fill="none" xmlns="http://www.w3.org/2000/svg">
<path d="M0 22C0 9.84974 9.84974 0 22 0C34.1503 0 44 9.84974 44 22C44 34.1503 34.1503 44 22 44C9.84974 44 0 34.1503 0 22Z" fill="url(#paint0_linear_2110_9684)"/>
<g clip-path="url(#clip0_2110_9684)">
<mask id="mask0_2110_9684" style="mask-type:luminance" maskUnits="userSpaceOnUse" x="9" y="10" width="25" height="24">
<path d="M9.5 10H33.5V34H9.5V10Z" fill="white"/>
</mask>
<g mask="url(#mask0_2110_9684)">
<path fill-rule="evenodd" clip-rule="evenodd" d="M33.5 22C33.5 28.627 28.127 34 21.5 34C14.873 34 9.5 28.627 9.5 22C9.5 15.373 14.873 10 21.5 10C28.127 10 33.5 15.373 33.5 22ZM21.93 18.859C20.7633 19.3443 18.4307 20.349 14.932 21.873C14.364 22.099 14.0663 22.32 14.039 22.536C13.993 22.902 14.451 23.046 15.073 23.241L15.336 23.325C15.949 23.524 16.773 23.757 17.201 23.766C17.5897 23.774 18.0237 23.614 18.503 23.286C21.771 21.0793 23.458 19.964 23.564 19.94C23.639 19.923 23.743 19.901 23.813 19.964C23.883 20.026 23.876 20.144 23.869 20.176C23.823 20.369 22.029 22.038 21.099 22.902C20.809 23.171 20.604 23.362 20.562 23.406C20.4667 23.5027 20.3727 23.5957 20.28 23.685C19.71 24.233 19.284 24.645 20.304 25.317C20.794 25.64 21.186 25.907 21.577 26.173C22.004 26.464 22.43 26.754 22.982 27.116C23.122 27.2093 23.257 27.3027 23.387 27.396C23.884 27.751 24.331 28.069 24.883 28.019C25.203 27.989 25.535 27.688 25.703 26.789C26.1 24.663 26.882 20.059 27.063 18.161C27.075 18.0034 27.0683 17.845 27.043 17.689C27.029 17.5628 26.9675 17.4466 26.871 17.364C26.728 17.247 26.506 17.222 26.406 17.224C25.955 17.232 25.263 17.473 21.93 18.859Z" fill="white"/>
</g>
</g>
<defs>
<linearGradient id="paint0_linear_2110_9684" x1="44.1796" y1="8.08135e-08" x2="-4.119" y2="39.2279" gradientUnits="userSpaceOnUse">
<stop stop-color="#D0AFFF"/>
<stop offset="1" stop-color="#C23AF5"/>
</linearGradient>
<clipPath id="clip0_2110_9684">
<rect width="24" height="24" fill="white" transform="translate(9.5 10)"/>
</clipPath>
</defs>
</svg>
